<?xml version="1.0" encoding="utf-8"?>
<!-- Generator: Adobe Illustrator 24.1.2, SVG Export Plug-In . SVG Version: 6.00 Build 0)  -->
<svg version="1.1" xmlns="http://www.w3.org/2000/svg" xmlns:xlink="http://www.w3.org/1999/xlink" x="0px" y="0px"
	 viewBox="0 0 720 936" style="enable-background:new 0 0 720 936;" xml:space="preserve">
<style type="text/css">
	.st0{fill:none;}
</style>
<g id="Layer_1">
	
		<image style="overflow:visible;" width="3076" height="3976" xlink:href="prideCOVER.png"  transform="matrix(0.24 0 0 0.24 -9.12 -9.12)">
	</image>
</g>
<g id="Layer_2">
	<g>
		<path d="M384.8,723.1c0.5,0.2,0.9,0.4,1.3,0.6C386,723.1,385.7,722.8,384.8,723.1z"/>
		<path d="M368.1,638.3c-0.1-0.3-0.1-0.6-0.2-0.9c-0.1-0.3-0.2-0.6-0.3-0.9l0.5,2.4C368.1,638.7,368.1,638.5,368.1,638.3z"/>
	</g>
	<g>
		<path d="M462.8,863.6c-2.3-0.8-4.9-0.7-7.3-1.2c-2.4-0.5-4.6-1.6-6.8-2.7c-2.1-1.1-4.3-2.2-6.4-3.3c-1-0.5-1.9-1-2.8-1.6
			c-2.6-1.9-4.3-4.8-6.6-7.1s-5.9-3.9-8.8-2.3c-2.7-6-5.8-11.8-9.2-17.4c-0.1-0.1-0.2-0.3-0.3-0.4c1.2,1,2.4,2.1,3.5,3.1
			c0.6,0.5,1.2,1.1,1.7,1.8c0.4,0.6,0.6,1.3,0.7,2c0.3,1.1,0.6,2.2,0.9,3.4c0.1,0.4,0.2,0.8,0.5,1.1c0.4,0.3,0.9,0.4,1.4,0.4
			c0.8,0,1.6,0,2.4,0c1.4-0.1,2.2-1.6,1.5-2.8c-0.2-0.3-0.3-0.6-0.5-0.8c-1-1.7-2-3.4-3-5.1c-1.6-2.7-3.2-5.5-5.4-7.8
			c-2.3-2.5-5.1-4.6-7.3-7.2c-0.5-0.6-0.9-1.1-1.1-1.8c-0.2-0.6-0.1-1.3-0.1-1.9c0.2-2.3,0.5-4.6,0.9-6.8c0.4-2.1,1-4.3,1-6.5
			c0-0.7-0.1-1.4-0.3-2c-0.2-0.4-0.5-0.8-0.8-1.2c0.6-0.4,0.9-1.4,0.7-2.2c-0.2-1-0.8-1.9-1-2.9c-0.2-1.1,0.2-2.3,0-3.4
			c-0.3-2.1-2.1-3.6-3-5.5c-0.9-1.9-0.7-4.1-0.7-6.2c-0.1-2.1-0.5-4.4-2.2-5.7c-1.2-0.8-2.8-1-3.8-2.1c-0.4-0.4-0.6-0.9-1-1.3
			c-1.3-1.7-3.6-2.7-5.7-2.3c-1.2,0.2-2.4,0.8-3.6,1.1c-0.4,0.1-0.8,0.1-1.1,0.1c-0.7-0.1-1.2-0.4-1.8-0.7c-1.2-0.6-2.4-1.1-3.7-1.1
			s-2.7,0.6-3.3,1.7c-0.7,1.2-0.8,2.9-2,3.4c-0.4,0.2-0.8,0.2-1.2,0.2c-1.4,0-2.8,0.2-4.1,0.4c-1.2,0.2-2.6,0.6-3.2,1.6
			c-0.8,1.4-0.1,3.4-1.2,4.5c-0.3,0.3-0.8,0.5-1.2,0.8c-1.3,0.9-1.6,2.8-1.4,4.4c0.2,1.6,0.8,3.2,0.9,4.8c0.1,1.6-0.4,3.2-0.8,4.7
			c-0.2,0.7-0.3,1.4-0.2,2.1c0.2,1.3,1.3,2.5,0.9,3.7c-3.1,2.9-5.2,6.8-6.6,10.9c-1.5,4.4-2.1,9.1-2.5,13.8c0,0,3.1,5.3,22.2,9.3
			c-0.1,0.9-0.1,2,0.1,3.1l-0.4,3c0,0,0.5,0.1,1.2,0.1c0.7,2,1.8,4.3,3.5,6.9l1.8-0.3c-0.8,1.9-1.2,3.9-1.5,6
			c-0.2,1.9-0.4,3.7-0.3,5.6c0.1,2.5,0.4,5,1.1,7.5l0.3,0.4c0.8,1.3,1.4,1.4,2.8,1.8c1.4,0.4,2.9,0.6,4.3,1.1
			c1.9,0.6,3.5,1.7,5.2,2.8c6,3.7,13,6.4,20.1,5.8c1.2-0.1,2.3-0.3,3.5-0.1c0.9,0.1,1.8,0.5,2.7,0.8c3.3,1,7,0.5,9.9-1.2
			c0.2-0.1,0.4-0.2,0.5-0.4c0.2-0.4-0.1-0.8-0.3-1.1c-0.8-0.9-2.1-1.2-3.2-1.6c-8-2.3-15.4-6-22.9-9.6c-2.2-1.1-4.4-2.2-6.5-3.5
			c-0.3-0.2-0.7-0.5-0.9-0.8c-0.2-0.4-0.1-0.9-0.1-1.3c0.3-1.7,0.6-3.4,1.1-5c0.5-1.6,1-3.2,1-4.9c0-1.7-0.6-3.3-1.6-4.7l1-0.2
			l0.7-1.4c0,0.1,0,0.1,0,0.2l22.6,16.8c4.4,5.1,10.6,8.5,17.2,9.6c2,0.3,4.1,0.4,6.1,1c2,0.6,3.8,1.5,5.7,2.3
			c3.3,1.3,6.8,1.9,10.4,1.8c0.3,0,0.7,0,0.9-0.2c0.3-0.2,0.5-0.5,0.5-0.9C467.2,866.8,465.1,864.4,462.8,863.6z M396.3,790.5
			c-0.1,0-0.2,0-0.3,0l-0.2,1l-0.5-0.1c0.5-0.7,1-1.5,1.3-2.3C396.5,789.7,396.4,790.1,396.3,790.5z M382.3,782.5
			c0.5,2.4,1.6,4.8,3.5,6.5c0.3,0.3,0.6,0.5,0.9,0.7c-0.1,0.4-0.2,0.8-0.2,1.2c0-0.8-0.2-1.5-0.7-1.9c0,0-3.2-2-3.7-8.2
			C382.1,781.5,382.2,782,382.3,782.5z M397.3,783.9c-0.1-0.7-0.2-1.4-0.5-2c-0.1-0.3-0.3-0.7-0.3-1c-0.1-0.5,0-1.1,0.1-1.6
			c0.1-0.4,0.1-0.8,0.2-1.2l0.7,4.2C397.3,782.9,397.3,783.4,397.3,783.9z M372,809.1c0,0,0-0.1,0.1-0.1c0.2,0.1,0.4,0.1,0.6,0.1
			c0,0,0.7,0,1.7-0.1l8.4,15.3c0,0,0,0,0,0l-14.8-6.2C369.4,815.1,370.7,812.1,372,809.1z M400.7,817.3l5-14.4
			c0.1,0.2,0,0.5-0.1,0.8c-1.7,4.3-3.1,9.2-1.2,13.5c0.3,0.7,0.8,1.4,1.2,2.1L400.7,817.3z M409.7,825l0.6-1.3
			c0.5,0.5,1,0.9,1.6,1.4c-0.5-0.1-1-0.2-1.5-0.2C410.1,824.9,409.9,825,409.7,825z"/>
	</g>
	<path d="M381.4,592.1L381.4,592.1L381.4,592.1C381.4,592.1,381.4,592.1,381.4,592.1z"/>
	<path d="M379.2,600.1C379.2,600.1,379.2,600.1,379.2,600.1C379.2,600.1,379.2,600.1,379.2,600.1
		C379.2,600.1,379.2,600.1,379.2,600.1z"/>
	<path d="M358.6,625.1c-0.1,0.4-0.3,0.7-0.5,1.1l0.3,0.1c0.2-1.3,0.6-2.5,1.2-3.7c0.7-1.5,1.5-3.1,1.9-4.7c0.1-0.9,0.3-1.8,0.5-2.7
		c0-0.6,0-1.3-0.1-1.9C361.2,617.3,360.1,621.2,358.6,625.1z"/>
	<path d="M380.4,593c-0.3-1.4-0.3-2.8-0.1-4.1l0.1,0.2c-0.1-0.7-0.2-1.3-0.4-2c-0.4,0.2-0.9,0.2-1.3,0.1c-0.4-0.1-0.8-0.4-1.1-0.7
		l0,4.8C378.7,591.5,379.7,592.2,380.4,593z"/>
	<path d="M359.5,636.4c0.2,0.4,0.3,0.9,0.5,1.3c-0.1-0.5-0.3-0.9-0.4-1.3L359.5,636.4z"/>
	<path d="M389.4,702.9c0.6,10.1,2.4,14.3,3.7,16.1l0.5-6.8c0,0-0.1-17.1-1.7-18.7c-1.6-1.6-3.6-16-3.6-16s-1.1,7.1,0.6,12.8
		C390.7,696.1,389.4,702.9,389.4,702.9z"/>
	<path d="M353.8,593.6c0,0.1,0.1,0.1,0.1,0.2c0-0.4,0.1-0.9,0.3-1.2c0,0,0,0,0-0.1c-0.8-0.1-1.6-0.1-2.4,0
		C352.7,592.6,353.4,592.9,353.8,593.6z"/>
	<path d="M354.2,596L354.2,596C354.3,596,354.3,596,354.2,596l0-0.5C354.3,595.6,354.3,595.8,354.2,596z"/>
	<path class="st0" d="M354.2,596L354.2,596C354.3,596,354.3,596,354.2,596l0-0.5C354.3,595.6,354.3,595.8,354.2,596z"/>
	<path class="st0" d="M375.3,585.8c-0.4-0.5-0.4-1.4,0.1-1.9c-0.9-0.3-1.5-1.3-1.4-2.2c-0.3-1.1-0.4-2.3-0.3-3.4
		c-0.1-0.3-0.1-0.6,0.1-0.9c0-0.2,0-0.3,0-0.5c-0.3-0.1-0.5-0.3-0.6-0.5c-2.8,1.2-5.3,3-7.4,5.2c-1.2-2.4-3-4.5-5.2-6.1
		c0.1,0.2,0.1,0.5,0.2,0.7c0.3,1.3,0.5,2.5,0.6,3.8c0.2,1.5,0.3,3.1,1.2,4.3c0.8,1.1,2.1,1.6,3.4,2c0.7,0.2,1.4,0.4,1.9,0.8
		c1.1,0.9,1.2,2.5,0.8,3.8c-1,3.7-5,6-8.8,5.7c-1.8-0.2-3.8-1.1-4.3-2.9c-0.8,0.6-1.8,1.1-2.8,1.4c0,1.4,0.1,2.8,0.1,4.2
		c0,0,0.1,0,0.1,0c0.2,0,0.3,0.1,0.5,0.2c-0.1-0.9,0.2-1.6,1.2-1.6c5.8,0,10.5,8.4,10.9,9.1c1.8-4.4,4.5-8.5,8.2-11.5
		c0-0.1-0.1-0.1-0.1-0.2l0.1,0.1c0,0,0.1-0.1,0.1-0.1c-1-1.6,0.3-3.9,2.2-4.3l0-5C375.8,586.2,375.5,586,375.3,585.8z"/>
	<path class="st0" d="M358.6,625.1c-0.1,0.4-0.3,0.7-0.5,1.1l0.3,0.1c0.2-1.3,0.6-2.5,1.2-3.7c0.7-1.5,1.5-3.1,1.9-4.7
		c0.1-0.9,0.3-1.8,0.5-2.7c0-0.6,0-1.3-0.1-1.9C361.2,617.3,360.1,621.2,358.6,625.1z"/>
	<path class="st0" d="M380.4,589.1c-0.1-0.7-0.2-1.3-0.4-2c-0.4,0.2-0.9,0.2-1.3,0.1c-0.4-0.1-0.8-0.4-1.1-0.7l0,4.8
		c1,0.2,2,0.9,2.7,1.7c-0.3-1.4-0.3-2.8-0.1-4.1L380.4,589.1z"/>
	<path class="st0" d="M359.5,636.4c0.2,0.4,0.3,0.9,0.5,1.3c-0.1-0.5-0.3-0.9-0.4-1.3L359.5,636.4z"/>
	<path class="st0" d="M379.2,600.1C379.2,600.1,379.2,600.1,379.2,600.1C379.2,600.1,379.2,600.1,379.2,600.1
		C379.2,600.1,379.2,600.1,379.2,600.1z"/>
	<path class="st0" d="M354.3,592.5c-0.8-0.1-1.6-0.1-2.4,0c0.8,0.1,1.5,0.4,2,1.1c0,0.1,0.1,0.1,0.1,0.2
		C353.9,593.3,354,592.9,354.3,592.5C354.2,592.5,354.3,592.5,354.3,592.5z"/>
	<path class="st0" d="M388.4,677.5c0,0-1.1,7.1,0.6,12.8c1.7,5.7,0.4,12.6,0.4,12.6c0.6,10.1,2.4,14.3,3.7,16.1l0.5-6.8
		c0,0-0.1-17.1-1.7-18.7C390.3,691.9,388.4,677.5,388.4,677.5z"/>
	<path class="st0" d="M381.4,592.1C381.4,592.1,381.4,592.1,381.4,592.1l0-0.1L381.4,592.1z"/>
	<g>
		<path d="M351.6,810c0.3-0.4,0.3-0.8,0.3-1.3c0-0.1,0-0.2,0-0.2c2,0.7,3.7,2.1,5.8,2.5c0.8,0.1,1.6,0.1,2.4,0
			c0.9-0.1,1.8-0.3,2.4-0.9c1.1-1,0.9-2.7,0.7-4.2c-0.1-0.6-0.2-1.3-0.8-1.6c-0.2-0.1-0.5-0.1-0.8-0.1c-1,0.1-1.9,0.2-2.9,0.3
			c1.7-1.1,2.9-2.9,3.5-4.8c0.3-0.9,0.6-1.8,0.6-2.8c0.2-2.3-0.4-4.5-1.1-6.7c0-0.1,0-0.2-0.1-0.2c-1-3.9-2.1-7.8-3.5-11.7
			c-0.3-1-0.7-1.9-1.2-2.8c0-0.1-0.1-0.2-0.1-0.2c0,0,0,0,0,0c-0.1-0.1-0.1-0.2-0.2-0.4l-0.2,0.2c-0.2-0.3-0.4-0.6-0.6-0.9
			c-2.2-3.1-6.5-3.9-10.3-4.5c-0.4-0.1-0.9-0.1-1.3,0.1c-0.3,0.2-0.4,0.6-0.5,0.9c-0.6,2.2-0.4,3-1,5.2c-0.1,0.4-0.2,0.7,0,1.1
			c0.4,0.9,1.7,0.7,2.5,0c0.7-0.6,0.6-1.5,1.5-1.6c1.3-0.2,5.8,0.9,6.5,2.1c-0.1,0.1-0.2,0.2-0.3,0.4l-0.5,0.4
			c0.2,0.4,0.3,0.8,0.5,1.1c0.1,0.8,0.2,1.6,0.3,2.3c-4.9-1.6-9.8-3.2-14.6-5c2.1-1.8,3.6-4.3,4.3-7c0-0.1,0-0.2,0-0.2l0,0.1
			c0.4-0.2,0.7-0.5,1-0.8c0.4-0.6,0.3-1.3,0.3-2c0-0.1,0-0.2-0.1-0.3c-0.1-0.2-0.4-0.3-0.7-0.3c0,0,0,0,0,0c1.5-1.6,2.7-3.6,3-5.8
			c0.3-2.2-0.2-4.6-1.7-6.3c-0.9-0.9-2-1.6-3.1-2.2c-1.7-1-3.5-2-5.5-2.3c-1.3-0.2-2.5,0-3.8,0.2c-2.7,0.6-5.4,1.8-7.3,3.9
			c-1.9,2.1-2.8,5.1-2,7.8c0.4,1.3,2.1,2.8,3.1,4c-0.1,0-0.1,0-0.2,0c-0.2,0-0.3,0-0.4,0.2c-0.1,0.1,0,0.3-0.1,0.4
			c0,0.7-0.6,1.4-0.4,2.1c0.1,0.4,0.5,0.7,0.9,0.9c0.1,0.9,0.2,1.8,0.4,2.6c0.1,0.3,0.2,0.6,0.3,0.9c-0.1,0-0.2,0.1-0.2,0.1l0-0.1
			c-3,1-5.6,2.8-8,4.8c-2,1.5-3.8,3.2-5.4,5c-0.8,0.9-1.7,1.9-2.1,3.1c-0.2,0.7-0.3,1.5-0.4,2.3c-0.1,0.9-0.1,1.9-0.2,2.8
			c-0.2,2.9-0.2,5.7,0,8.6c0.1,2.3,0.2,4.7,0.5,7c0.2,2,0.7,4.3,1.7,6c-0.5,0.8-1,1.7-1.4,2.5c-1.3,2.8-2.2,6.6-0.7,9.2
			c1.3,2.3,3.9,2.8,6.2,3.2c3.3,0.6,6.5,1.7,9.6,3.1l1.2-0.5l0.1,2.3c-2.7,9.2-1.2,19.3,0.4,28.9c0.2,1,0.9,3.2,1.7,3.8c0,0,0,0,0,0
			c-0.2,0.5-0.4,1-0.6,1.5c-0.2,0.5-0.3,0.7-0.6,2.2c-0.2,1.2-0.3,2.5,0.3,3.5c0.3,0.6,0.9,1.1,1.4,1.5c3.1,2.5,6.7,4.3,10.5,5.2
			c0.7,0.2,1.6,0.2,2-0.4c0.2-0.3,0.2-0.8,0.2-1.2c-0.4-1.9-2.3-2.9-3.6-4.2c-0.3-0.3-0.7-0.7-0.7-1.2c0-0.4,0.1-0.8,0.3-1.1
			c3.1-7.1,8.7-12.5,12.2-19.4c1.5-2.9,2.6-6,3.6-9.1c1.7-5,3.4-9.9,5.1-14.9c0.5-1.4,1-2.8,0.8-4.3c-0.1-1.2-0.6-2.4-1.3-3.4
			c-2.1-2.9-5.6-4.2-8.9-5.3c-2.1-0.7-4.2-1.4-6.3-2.1c2-0.4,4-0.9,6-1.4C350.6,810.6,351.2,810.4,351.6,810z M352.3,804.7l-0.4,2.5
			c0.1-1,0.1-2.1,0.2-3.1c0-0.2,0-0.5-0.2-0.7c-0.1-0.1-0.3-0.1-0.4-0.1c-0.5-0.1-1-0.1-1.4-0.2c-1.5-0.4-3-0.7-4.5-0.7
			c0,0,0-0.1,0-0.1c1.1-1.8,1.2-2.9,1.4-5c0.1,0.1,0.2,0.2,0.3,0.3c0.4,0.6,1.2,1.3,2,1.9c0,0,0,0,0,0c1.7,1.6,3.3,3.3,5.2,4.6
			c0,0,0,0,0,0c0.3,0.2,0.6,0.5,1,0.7C354.4,804.8,353.4,804.8,352.3,804.7z M345.6,802.3l0,0.1c0,0,0,0,0,0
			C345.6,802.4,345.6,802.3,345.6,802.3z"/>
	</g>
	<g>
		<g>
			<g>
				<path d="M312.8,800.8c0.1-3.1-1.1-6.1-2.6-8.8c-0.5-1.1-1.1-2.1-1.9-3.1c-1.4-1.8-3.5-3.1-5.4-4.3c-1.5-0.9-3.1-1.9-4.6-2.8
					c-1.4-1-2.9-1.8-4.6-2.4l0.2,0.1c-0.4-0.2-0.8-0.4-1.2-0.5c0.4-1.9,0.4-3.8,0.3-6.2c0-0.8,0.7-2.8,0.8-3.6
					c0.1-1.4,0.2-2.8,0.1-4.2c0-0.2,0-0.5-0.1-0.7l0.1,0c0.7-1.1,1.4-2.2,2-3.3c-1.2-1.1-3.1-0.8-4.7-1.2c-1.2-0.3-2.2-1.1-3.4-1.4
					c-1.9-0.5-3.8,0.1-5.6,0.8c-0.5,0.2-0.9,0.4-1.4,0.3c-0.7-0.1-1.5-0.8-2.1-0.4c-0.3,0.2-0.5,0.5-0.6,0.9c-1,2.8-1.4,5.9-1.1,8.9
					c-0.6-0.5-1.3-0.1-1.5,0.5c-0.1,0.3-0.1,0.6-0.1,0.9c0.1,1.2,0.2,2.4,0.3,3.5c0,0.1,0,0.3,0.1,0.4c0.1,0.1,0.5,0.4,0.7,0.4
					c1.1-0.2,1.3,0.6,1.5,1.2c0.2,0.6,0.3,1.2,0.3,1.8l-0.3,1c0.1-0.4,0.2-0.8,0.2-1.3l-0.3-0.3c-0.2,0.1-0.3,0.1-0.5,0.2l0,0
					c-4.3,1.2-8.3,3.5-12.2,5.8c-0.9,0.5-1.8,1.1-2.6,1.6c-0.1,0.1-0.3,0.1-0.4,0.2c-1.5,1-3.1,2-4.1,3.5c-0.7,1-1.2,2.2-1.7,3.4
					c-0.1,0.2-0.2,0.4-0.3,0.6c-1.9,3.1-3.6,6.2-5.1,9.4l0.5-0.4c-1.6,4.2-2.2,8.8-2.6,13.3c-0.1,1.3-0.2,2.7,0.4,3.8
					c0.1,0.3,0.3,0.5,0.6,0.6c0.3,0.1,0.6,0.1,0.9,0.1c0.1,0,0.3,0,0.4,0l-0.1,0.1c0.9-0.1,1.8-0.2,2.8-0.3c6-0.2,12,0.4,18,0.5
					c2.2,0.1,4.4,0.2,6.6,0.2c0.4,0,0.7,0,1-0.2c0.3-0.2,0.4-0.6,0.5-1c0.2-0.8,0.4-1.7,0.5-2.5c0.1-0.3,0.3-0.7,0.5-1l-0.4,3.7
					c1.7-0.2,3.5-0.3,5.2-0.3c0.2,0,0.3,0,0.5,0c-0.1,0.1-0.2,0.1-0.3,0.2l-0.5,0.1c-0.9,0.8-1.6,1.9-1.9,3.1
					c0.2,0.1,0.3,0.2,0.5,0.3c0.2,0.3,0.4,0.5,0.7,0.6c0.5,0.3,0.9,0.6,1.4,0.8l-0.8-0.3c-0.4,0.1-0.7,0.5-0.9,0.9
					c-0.4,0.7-0.7,1.4-1,2.2c-0.2,0-0.3,0-0.5,0l-0.1,0.1c-0.1,0-0.3,0.1-0.4,0.1c-1.9,0.1-3.1,2-4,3.7c0,0,0,0,0,0
					c-2.2,3.4-3.9,7.1-5.5,10.8c-0.8,1.7-1.6,3.4-2.3,5.1c-0.6,1.5-1,3.1-1.5,4.7c-0.8,2-1.5,4-2.4,6l-1.7,3.3
					c0.2-0.3,0.4-0.6,0.6-0.9c-0.1,0.2-0.2,0.5-0.3,0.7c-0.1,0.2-0.2,0.4-0.1,0.6c0,0.2,0.2,0.3,0.3,0.4c0.4,0.4,0.9,0.7,1.3,1
					c3.7,3.1,8.1,5.3,12.8,6.4c0.4,0.1,0.8,0.2,1.2,0.3c0,0,0,0,0-0.1c0.2,0,0.3,0.1,0.5,0.1l-0.4-0.2c0.1-0.4,0.3-0.8,0.4-1.2
					c0.6-1.5,1.4-3,2.1-4.5c0.7-1.4,1.4-2.7,2.1-4.1c0.5-0.8,0.9-1.6,1.4-2.4c1.5-2.8,3-5.6,4.2-8.6c2.2-4.8,4-9.8,3.6-15
					c-0.1-1.1-0.3-2.3-0.9-3.3c-0.4-0.7-1-1.3-1.7-1.6c-0.5-0.3-1.1-0.6-1.7-0.8c-0.2-0.1-0.4-0.1-0.7-0.2c0.4-0.4,0.9-0.8,1.4-1.1
					c0.3,0.1,0.7,0.2,1.1,0.2c0.6-0.1,1.1-0.4,1.5-0.8c4.2-3.1,7.9-6.7,11.2-10.7l-0.1,0c1-1.1,2-2.3,2.9-3.4
					C310.5,807.7,312.6,804.5,312.8,800.8z M282.1,813.8c-0.2,0.1-0.5,0.2-0.8,0.3c0.2-0.3,0.4-0.6,0.5-0.9L282.1,813.8z"/>
			</g>
		</g>
		<g>
			<path d="M269.5,864.1c-1.1,2.7-2.1,5.6-1.3,8.4c0.2,0.6,0.4,1.2,0.5,1.8c0.1,0.6,0.1,1.2,0,1.7c0,1.5,0.2,2.9,0.6,4.3
				c0.3,1.1,0.8,2.1,1.6,2.9c0.8,0.7,2.1,1.1,3.1,0.7c1.1-0.5,1.7-1.7,2.1-2.9c1-2.7,1.7-5.6,1.3-8.5c-0.2-1.7-0.7-3.6,0.3-5
				L269.5,864.1z"/>
		</g>
	</g>
	<g>
		<g>
			<path d="M653.9,589.8c-0.7-1.4-1.4-2.7-2.5-3.8s-2.6-1.7-4-1.6l0,0.3c-0.1-0.2-0.1-0.4-0.3-0.6c-0.4-0.5-1-0.7-1.6-0.9
				c-1.8-0.5-3.6-0.7-5.4-0.6c-0.2-0.6-0.5-1.2-0.7-1.7c-0.2-0.4-0.5-0.9-0.9-0.8l0,0.2c0,0-0.1,0-0.1,0c-0.1-0.6-0.2-1.3-0.3-1.9
				c0.3-0.3,0.6-0.6,0.8-1c1-1.6,1.8-3.2,2.4-5l0-0.2c0-0.3,0-0.6,0-0.9c0.2-0.2,0.3-0.4,0.4-0.5c0.2-0.4,0.2-0.8,0.1-1.2
				c0-0.3,0-0.5-0.2-0.7c-0.1-0.1-0.4-0.2-0.6-0.2l0-0.3c-0.1-1.5-0.9-2.9-1.7-4.3c-0.2-0.3-0.4-0.6-0.6-0.9
				c-0.6-0.5-1.4-0.7-2.1-0.7c-0.8,0-1.5,0.1-2.2,0c-0.7-0.1-1.3-0.4-1.9-0.4c-0.8,0-1.5,0.5-2,1.2c-0.5,0.7-0.8,1.5-1.1,2.3
				c-0.1,0.4-0.3,0.7-0.3,1.1c-0.2,0.9,0.1,1.8,0.6,2.5c-0.1,1.4,0.2,3-0.3,4.3c-0.1,0.4,0.2,2.8,0.1,3.2c-0.2,0.8,0.7,1.6,1.8,2.3
				c-0.1,0.9-0.2,1.8-0.3,2.6c-0.1-0.3-0.2-0.5-0.2-0.8c-0.6,0.3-0.9,0.9-1.2,1.5c-0.2,0.5-0.4,0.9-0.6,1.4c-0.3,0.1-0.6,0.3-1,0.4
				l0-0.3c-2.2,0.3-3.9,1.9-5.5,3.4c-0.1,0-0.1,0.1-0.1,0.2c0,0,0,0,0,0c-0.2,0.2-0.3,0.3-0.4,0.6c-0.2,0.1-0.4,0.3-0.7,0.5
				c-0.7,0.5-1.2,1.4-1.4,2.3c-0.2,1-0.2,2-0.1,3c0,2.3-0.1,4.6-0.3,6.8c-0.2,1.8-0.5,3.6-0.5,5.4c0,1.9,0.4,3.8,0.9,5.7
				c0.4,1.3,0.8,2.6,1.6,3.6c0.8,1.1,2,1.8,3.3,1.8c0.1,0,0.3,0,0.4-0.1l-0.1,0.5c0.1,1.7,0.3,3.4,0.4,5c0,0.5,0.1,1,0.4,1.4
				c0,0.1,0.1,0.1,0.1,0.1c-2.2,14.5-3.6,29.1-4.1,43.8c-0.2,5.5-0.2,11.2,1.2,16.6c0.1,0.5,0.3,1.1,0.7,1.5
				c0.2,0.2,0.4,0.3,0.6,0.4c-0.3,0.5-0.7,1-1,1.5c-1.8,3.4-1.9,6.8-0.3,7.8c1.6,0.9,4.4-1,6.2-4.4c0.7-1.4,1.2-2.8,1.3-4
				c0.4,0.1,0.8,0.1,1.2,0.2c1.3-2.5,1.6-5.4,1.8-8.3c1-13.3,2.1-26.7,3.1-40c2.1,12.4,3,25.1,2.7,37.7c-0.1,3.4-0.3,6.8-0.1,10.2
				c0,0.6,0.1,1.2,0.5,1.6c0.1,0.1,0.2,0.2,0.3,0.2c-1.3,3-1.2,5.9,0.2,6.7c1.6,0.9,4.4-1,6.2-4.4c0.3-0.7,0.6-1.3,0.8-1.9
				c0.4,0,0.7-0.1,1.1-0.1c0.4-0.1,0.8-0.2,1.1-0.5c0.3-0.3,0.3-0.7,0.3-1.1c0-1.6-0.2-3.3-0.6-4.8l-0.2,0.3
				c0.3-13.5,0.9-26.9,2-40.3c0.6-7.1,1.2-14.5-1.6-21.1c0.1-0.1,0.2-0.1,0.2-0.2c0.3-0.3,0.3-0.7,0.4-1.1c0.4-2.2,0.7-4.5,0.8-6.8
				l-0.2-0.4c0.8-0.4,1.6-1,2.3-1.5c1.6-1.1,3.2-2.2,4.7-3.3c0.2-0.1,0.4-0.3,0.5-0.5c0.1-0.2,0.1-0.4,0.1-0.6
				C658,601.1,656.5,595.1,653.9,589.8z M637.7,583.8c0-0.1,0-0.2,0-0.3c0-0.1,0-0.1,0.1-0.1L637.7,583.8z"/>
		</g>
	</g>
	<path d="M72.4,892.3c-0.1,0-0.1,0-0.2-0.1c-0.8-0.4-1.6-0.7-2.4-0.9c-2.8-1.4-3.9-3.1-3.9-3.1l-1-4.5l-0.1-3.4
		c1.7-0.3,2.9-0.5,2.9-0.5s-0.1-4.5-0.2-5.3c0-0.2-0.5-0.2-1-0.3c0.9-3.9,1.3-8.1,1.3-12.3c1.2,0.1,2.5,0.3,3.7,0.4
		c-1.3-9.2-2.5-18.4-3.8-27.5c0.2-3.1,0.3-6.3,0.5-9.4c0.3-6.2,3.4-12.3,1.3-17.9c0.4-0.2,0.7-0.4,0.7-0.5
		c0.3-0.8,0.8-12.9,0.8-12.9c0.7-6.7-1.1-9.5-1.1-9.5c0,0,0,0,0,0c-0.2-0.8-0.7-1.4-1.5-1.6c-0.3-0.1-0.6-0.1-0.9,0
		c-0.1-0.1-0.2-0.1-0.3-0.2c0-0.8-0.1-1.7-0.1-2.5l-0.3,2.3c0,0-0.1,0-0.1,0c0.1-1.2,0.3-2.3,0.4-3.5c0,0.4,0,0.8,0,1.2l1.1-8
		c-0.4,1-0.7,2.1-0.8,3.2c0.1-2.8,0-5.5-0.4-8.3c-0.5-3.4-1.6-6.8-3.8-9.3c-2.1-2.4-5.6-3.7-8.3-2.2l-1.1-1.1
		c-0.1-0.2-0.3-0.3-0.4-0.5c0.7,0.8,1.4,1.7,2,2.5c-1.4-0.4-3-0.2-4.3,0.5c-1.5,0.8-2.7,2-3.6,3.4c-2.6,3.8-3.5,8.7-2.5,13.1
		c0,0.1,0,0.1,0,0.2c-0.1,0.8,0.1,1.7,0.4,2.5c0,0.1,0.1,0.2,0.1,0.3c0,0.1,0,0.2,0,0.3c0,1.1-0.3,2.4-1.2,3c0.4,0,0.8,0.1,1.2,0.3
		l0,0.3c-2.4,1.2-4.8,2.3-5.8,2.3c-1.7,0.1-6.5,5.6-6.5,5.6s0.3,0.4,0.6,1c-2.4,1.2-6.5,4.3-6.4,6.8c0,0.7,0.4,1.4,0.8,1.9
		c-0.3,1.8,1.4,4.4,2.1,5.7c1.2,2.3,2.5,4.5,4,6.6c-0.2,3.3-0.3,6.6-0.4,9.9c-0.2,9-0.8,18.5-5.2,26.2c-1.6,2.7-3.6,5.1-5.1,7.9
		c-1.5,2.8-2.6,6-1.9,9.2c0.6,3.1,3.4,5.9,6.4,5.4c-1,0-1.6-1.4-1.3-2.4c0.3-1,1.2-1.7,2-2.2c0.9-0.5,1.8-0.8,2.6-1.5
		c1.3-1.2,1.8-3,2.2-4.8c0.2-0.7,0.3-1.3,0.5-2c-0.1,0.7-0.3,1.3-0.6,2.6c1.5,1.6,3.6,2.4,5.7,2.1c1.1-0.2,2.1-0.6,3-1.3
		c0.2,5.4,0.5,10.8,0.7,16.2c-0.1,0.1-0.3,0.1-0.4,0.2c-1.1,0.6,0.1,4.3,0,5.5c0,0.2,0.3,0.3,0.9,0.2c0,2.4-0.1,8.3,0.2,10.3
		c0.4,2.5,4.3,5.8,7.5,7.4c3.2,1.6,5.7,1.4,7,0.3c1.3-1.1-0.3-1.2-2.3-4.1c-2-2.8-2.4-3.7-2.8-5.9c-0.3-1.8-1.4-7.4-1.8-9.8
		c2.1-0.6,3.7-1.1,3.7-1.1s-0.5-4.5-0.8-5.2c-0.1-0.2-0.6-0.2-1.3-0.1l2.1-11.4l1.5,12.8c-0.3,0.1-0.6,0.1-0.8,0.2
		c-1.2,0.4-0.3,4.3-0.6,5.5c-0.1,0.3,0.5,0.4,1.4,0.4c0.1,2.9,0.3,7.3,0.8,8.7c0.6,1.8,0.2,5.3,3.4,5.8c3.2,0.6,9.9,1.8,12.6,1
		c2.7-0.8,3.8-2,3.8-2S77.2,893.7,72.4,892.3z M36.2,799.1c0,0,0.1,0,0.1,0c0,0.1,0,0.1,0,0.2C36.2,799.2,36.2,799.1,36.2,799.1z"/>
	<path d="M708.5,626c-0.4-1.6-0.8-3.2-1.1-4.8c0.1,0.1,0.1,0.2,0.2,0.3c0-0.1,0-0.1,0.1-0.2c0.1-0.3,0.2-0.5,0.3-0.8
		c1.8,2.3,3.6,4.7,5.4,7c-8.1-17.1-3.9-37.6-9.7-55.6c-1.1-3.6-3.2-7.4-6.8-8.2c-2.1-0.4-4.4,0.4-6.1,1.7c-1.6,1.3-2.5,3.7-4.1,4.8
		c-0.6,0.4-2.4,0.5-3.2,1.2c-1.4,0.7-2.7,1.7-3.6,3c-2.5,3.6-2.2,8.8,0.2,12.5c0.4,0.6,0.9,1.2,1.5,1.8c-0.4,0.3-0.9,0.4-1.4,0.5
		c-0.8,0.1-1.6,0-2.4-0.1c0,0,0-0.1,0-0.1c0,0,0,0.1-0.1,0.1c-3-0.3-6.1-1.1-8.4,1.7c-0.3,0.4-0.5,0.8-0.7,1.3c0,0,0,0,0,0
		c-1.1,1.2-1.5,2.7-2,4.3c-0.8,2.9-1.5,5.9-2.3,8.8c-0.7,1.4-1.3,2.8-1.5,4.4c0,0.3,0,0.6,0,0.9c-1.2,3.9-2.6,7.8-4.5,11.4
		c-3.3,6.2-8.1,11.7-13.9,15.9c0.5-0.4,4.2,0.3,5.1,0.2c1.9-0.2,3.6-0.9,5.4-1.6c2.6,4.4,4.1,1.8,4.2-1.3c0.3-5.2,1.9-6.4,5.4-10.3
		c1.4-1.5,2.7-3.1,3.8-4.8c0.7,0.3,1.4,0.5,2.1,0.7c0,1.4-0.2,2.8-0.6,4.1c-0.6,2-1.7,3.8-2.1,5.9c-0.4,1.9-0.2,3.9,0.6,5.7
		c-0.6,0.9-0.9,2.2-0.9,3.3c-0.9,12.6,7.2,24.7,12.1,37c0.1,0.9,0.2,1.8,0.3,2.7c-0.4-0.2-0.7-0.4-1.1-0.6c0,1.1,0.1,2.3,0.4,3.5
		c-0.5,0.8-0.7,2.1-0.6,3.9c0.1,1.9,0.7,3.7,1.4,5.4c1.2,3.2,2.5,6.5,3.1,10c-0.1,5.6-1.7,11.2-5.4,15.8c4.1,1.5,9.5-1.1,10.3-5
		c0.1,1.3,0.1,2.6,0.2,3.9c0.3,0,0.6,0,0.9,0c-0.1,0,0.3-3.2,0.7-7.6c1.6-1.5,2.9-3.4,3.9-5.5c0.3,2.2,1.5,4.2,3,5.1
		c-1.4-0.8-3.4-11-4.1-13.1c-0.4-1.3-0.8-2.7-1.2-4c0.3-3.7,0.5-7,0.5-9.1c0.8-6.8,2.2-13.5,4.2-20c1.5-5,6.4-12.5,4.1-17.7
		c2.9-4,1.7-9.8,0-14.6c-0.8-2.4-1.6-5.1-2-7.6c0.3-0.2,0.5-0.5,0.7-0.7c0.8,2.1,1.7,4.2,2.9,6.1c2.7,4.6,4,6,3.1,11.2
		c-0.5,3,0.3,5.9,3.9,2.2c1.5,1.1,3.1,2.1,4.9,2.7c0.9,0.3,4.6,0.5,5,0.9C713.9,639.2,710.4,632.8,708.5,626z M689.8,569.9
		c1.7-0.9,3.9-0.1,5.2,1.4c1.2,1.5,1.7,3.5,2.1,5.4c1,4.7,1.6,9.5,2,14.3c-0.1,0-0.2-0.1-0.3-0.1c0-0.1,0-0.3-0.1-0.4
		c0,0.1-0.1,0.2-0.2,0.3c-0.9-0.3-1.9-0.5-2.9-0.5c-1.2,0-2.4,0.2-3.5-0.2c0,0-0.1,0-0.1,0c-0.1,0-0.2-0.1-0.3-0.1
		c-0.9-0.4-1.5-1.5-1.3-2.4c1-1.3,1.7-2.8,2.2-4.4c2.1-2.3,3.3-5.6,2.3-8.5c-0.7-1.9-3.1-4.3-5.4-4.5
		C689.7,570,689.7,570,689.8,569.9z"/>
	<path d="M679.4,771.6c-0.1-0.1-0.3-0.2-0.5-0.3c0,0,0,0,0-0.1c0-4.8-0.1-9.8-2.4-13.9c-1.6-2.7-4.5-4.6-7.3-4.8l-1.1,0l-4.5,0.1
		c0-0.1,0-0.1,0-0.2l-0.1,0.2l0,0c0,0-0.1-0.1-0.1-0.2c-0.1-0.5-0.5-0.8-0.8-1.3c0,0,0-0.1-0.1-0.1c0,0,0,0,0,0
		c-0.8-1.5-0.8-3.4,0-4.9c1.7-0.6,2.8-2.5,2.4-4.2c-0.4,0-0.8-0.1-1.2-0.1c0-0.1,0-0.2,0-0.3c0,0,0.1-0.1,0.1-0.1
		c0.1-0.2,0.2-0.5,0.2-0.8c0-1.1-0.1-2.1-0.5-3.2c0.2,0.2,0.3,0.5,0.3,0.9c-0.1-1.5-0.2-2.2-0.3-3.5c0.4-1.1-0.2-2.6-0.6-3.6
		c-0.7-1.6-1.9-3-3.5-3.9c-2.8-1.6-6.8-1.5-9.4,0.4c-2.2,1.5-3.3,4-3.1,6.4c-0.4,0.2-0.7,0.3-1.1,0.5c-0.5,0.3-1,0.8-0.7,1.3
		c0.3,0.4,0.9,0.3,1.4,0.2c0.7-0.2,1.3-0.4,2-0.5c0,0-0.1,0.1-0.1,0.1c-1.1,1.3-0.9,3.3-0.7,5c-0.1,2.2,0.2,4.5,0.9,6.6
		c0.2,0.8,0.6,1.5,0.9,2.2c-0.2,0.3-0.3,0.6-0.5,0.9c-0.8,0-1.7,0.3-2.4,0.7c-1.1,0.6-1.9,1.6-2.6,2.6c-2.5,4-2.3,9.1-3.7,13.7
		l2.9-4.9c-1.1,2.3-2.1,4.7-3.1,7c-1.5-0.1-2.7,1-3.7,2.6c-0.7,1.1-1.3,2.3-1.7,3.7c-0.2,0.7-0.4,1.4-0.5,2.1c-0.1,0.4,0,1.7-0.2,2
		c0.6-0.8,1.5-1.2,2.4-1.1c-0.1,0.2-0.1,0.3-0.2,0.5c-0.3-0.1-0.6,0-0.9,0.2c-0.4,0.2-0.7,0.7-1,1.1c-1.2,1.9-2.1,4.1-2.7,6.4
		c0.5,0.4,1,0.7,1.5,1.1c-0.1,0.2-0.1,0.4-0.2,0.6c-0.1,0.1-0.1,0.1-0.2,0.2c-0.1,0-0.2,0.1-0.3,0.1c-0.2,0.1-0.3,0.3-0.5,0.4
		c-0.5,0.4-0.9,1-1,1.8c-0.2,1.1,0.3,2.3,1,3c0.1,0.1,0.2,0.1,0.3,0.2c0.2,0.2,0.4,0.4,0.7,0.5c0.4,0.1,0.7,0.2,1.1,0.1l0,0
		c0.5,0,1.1-0.2,1.5-0.6c0.1-0.1,0.2-0.2,0.3-0.3c0.3-0.1,0.5-0.2,0.8-0.3c0.1-0.8,0-1.5-0.2-2.3c0,0-0.1,0-0.1,0.1
		c0-0.2,0-0.3-0.1-0.5c0.1,0.1,0.1,0.3,0.2,0.4c0.2-0.2,0.4-0.5,0.6-0.7c0.8,0.6,1.7,1.2,2.5,1.8c0.2,0.2,0.5,0.3,0.8,0.5
		c-0.1,0.3-0.3,0.5-0.4,0.7c0.3,0.2,0.6,0.3,0.9,0.4c-0.1,0.7-0.2,1.5-0.3,2.2c-0.4,2.7-0.8,5.7-0.1,8.3c0-0.1-0.1-0.1,0-0.2
		c-0.3,2.2-0.6,4.4-1,6.6c0.3,0.2,0.8,0.4,1.3,0.6c-1.1,1.7-2,3.9-2.4,6.4c-3.1,22.2-5.4,45.3-2.6,67.4l-1.2-1.3
		c0.7,2.6-0.9,5.1-2.3,7.2c-1.3,2.1-2.4,5.3-1,7.3c1.5,2.1,4.4,0.8,6.3-0.7c2.5-1.8,5.1-3.7,6.9-6.5c1.8-2.8,2.8-6.8,1.6-10.1
		c-2.1,3.1-3.9,5.2-6.3,5.5l6.2-6.3c-2.6-9.5-0.7-20.7,1.9-30.2c1.5-5.5,3.2-11.1,4.4-16.8c0,7.3-0.1,14.6,0.3,23.4
		c0.4,8.7,0.6,17.4,0.7,26.2c0,1.3,0.1,3.4,0.3,5.5c-3.1,0.6-7.3,8.9-6.8,10.7c0.3,1.2,1.6,1.3,2.6,1.2c4.7-0.8,17.7-4.7,12.9-12.8
		c0.3-1.3,0.5-2.7,0.7-4.1c2.9-24.4,12.1-49.4,6.4-78.3c0,0,0,0,0,0c0,0,0,0,0,0c0,0,0,0,0,0c-0.2,0-0.4,0-0.5,0.1
		c0.2-0.3,0.4-0.6,0.6-0.9c0.9-1.7,1.3-3.7,1.7-5.7c0.1-0.7,0.3-1.4,0.4-2.1c0.9-1,1.6-2.2,2.2-3.5c1.4-3.2,3.4-9.9,1.7-12.4
		c0.5,0.1,1,0.2,1.5,0.3c-0.5-0.5-1-1-1.6-1.5c1,0.6,1.9,1.2,2.7,2c0-3.1,0.8-5.7,1-8.6c0.1,0,0.2,0.1,0.2,0.1L679.4,771.6z
		 M663.3,755.9C663.3,755.9,663.3,755.9,663.3,755.9C663.3,755.8,663.3,755.8,663.3,755.9C663.3,755.8,663.3,755.8,663.3,755.9z
		 M662.9,756.2c0.1,0,0.1-0.1,0.1-0.1l0.1,0c0,0-0.1,0.1-0.1,0.1C663,756.2,662.9,756.2,662.9,756.2z M641.7,781.9
		c0.2,0.1,0.5,0.3,0.7,0.4c-0.1,0.7-0.2,1.3-0.3,2c-0.1-0.1-0.2-0.3-0.4-0.4l0.3,0.5c0,0,0,0.1,0,0.1c-0.4-0.4-0.8-0.8-1.1-1.3
		C641.2,782.8,641.4,782.4,641.7,781.9z M663.5,752.8L663.5,752.8C663.5,752.8,663.5,752.7,663.5,752.8L663.5,752.8z M635.6,790.1
		c-0.1-0.1-0.2-0.3-0.3-0.4c0,0,0,0,0,0C635.4,789.8,635.5,789.9,635.6,790.1z"/>
	<g>
		<g>
			<g>
				<path d="M118.4,620.4c-1.1-1-3.2-0.6-3.9-1.9c-0.2-0.4-0.2-0.8-0.2-1.3c0-0.7,0-1.4,0-2c0.6-0.1,1.2-0.3,1.8-0.5
					c0.3-0.1,0.5-0.2,0.7-0.4c0.1-0.2,0.1-0.4,0.1-0.6c0-0.5,0-1,0-1.5c0.3-1,0.3-2.2,0.3-3.3c-0.1-2.4-0.3-4.8-0.5-7.2
					c-0.1-2.1-0.3-4.2-0.5-6.3c-0.2-1.6-0.4-3.1-0.8-4.6c-0.7-2.6-1.9-5-3.1-7.3c-0.8-1.5-1.7-3-2.7-4.5c-0.7-1.1-1.4-2.1-2.1-3.2
					c-0.8-1.4-1.7-2.7-2.5-4.1c-0.1-0.2-0.3-0.4-0.4-0.7l0,0c-0.5-0.8-1-1.7-1.5-2.5c0,0,0,0,0-0.1c0.8-1.2,1.6-2.5,2.3-3.7
					c1-1.7,2.1-3.3,3-5.1c0.4-0.7,0.7-1.4,0.8-2.1c0.1-0.6,0.1-1.3,0.1-2c0-0.3,0-0.6,0-0.9c0-0.7,0-1.4-0.1-2.1
					c0-1-0.1-2.1-0.2-3.1c0-1-0.1-1.9-0.1-2.8c-0.1-1.8-0.2-3.6-0.4-5.3c-0.1-1.7-0.2-3.5-0.4-5.2c-0.1-1.4-0.3-2.8-1-4
					c-0.1-0.2-0.2-0.4-0.3-0.6c-0.5-0.6-1.1-1-1.8-1.3c-0.5-0.2-0.9-0.4-1.4-0.6c-2.9-1.5-5.7-3.2-8.3-5.3c-0.3-0.2-0.6-0.3-1-0.3
					c-0.2-0.1-0.5-0.3-0.7-0.4l-0.2,0.7c-0.1,0.1-0.2,0.2-0.3,0.3c0-0.8,0-1.6,0-2.2c0.2-0.2,0.4-0.3,0.5-0.5
					c0.9-1.2,0.9-2.7,0.9-4.3l0.9,0.1c0.6-0.1,1.2-0.2,1.8-0.4c0.2-0.1,0.4-0.1,0.5-0.3c0.1-0.1,0.1-0.3,0.1-0.4
					c0.1-3.3,0.1-6.6-0.2-9.9c-0.1-1-0.2-2-0.7-2.9c-0.4-0.8-1-1.4-1.7-1.9c-1.7-1.3-3.7-2-5.7-2.5c-1.1-0.3-2.2-0.5-3.4-0.4
					c-1.8,0.1-3.5,1-4.7,2.4c-1.1,1.4-1.7,3.3-1.4,5.1c0.1,0.8,0.4,1.7,0.3,2.5c-0.1,0.6-0.3,1.2-0.5,1.8c-0.4,1.1-0.9,2.1-1.3,3.2
					c-0.1,0.2-0.2,0.4-0.1,0.6c0.1,0.1,0.2,0.2,0.3,0.3c0.8,0.6,1.7,1.1,2.6,1.5c0,0.3,0,0.6,0,0.9c0.1,1.3,0.5,2.6,1.1,3.7l0,0
					c0.1,0.8,0,1.6,0,2.4c-0.1,0-0.1-0.1-0.2-0.1c0-0.4,0-0.7,0-1.1l-0.3,0c-0.6,0.1-1.1,0.3-1.5,0.6c-0.4,0.1-0.8,0.4-1.2,0.6
					c-2,1-4.4,0.4-6.6,0.6c-0.3,0-0.6,0.1-0.8,0.2c-0.9-1.4-1.9-2.7-3.1-3.7c-0.9-0.8-1.8-1.4-2.7-1.4c0,0-2-1.9-4.9-1.4
					c-0.1-0.7-0.1-1.4-0.2-2.1c-0.4,0.3-0.8,0.6-1.2,1c0.6-1.2,1-2.6,1-4c0.1-0.1,0.2-0.1,0.4-0.2c2.6-1.5,4.2-4.4,4.7-7.4
					c0.1-0.8,0.2-1.6,0.2-2.5c0,0.1,0,0.1,0,0.2c0.1,0.5,0.4,1,0.7,1.3c0.4,0.3,1,0.5,1.4,0.2c0.5-0.3,0.7-0.9,0.8-1.5
					c0.2-1.2,0.3-2.4,0.3-3.7c0-0.6,0-1.3-0.3-1.9c-0.4-0.8-1.3-1.4-1.4-2.3l-2,0.9c0.2,0.4,0.2,1,0.2,1.5c0,0.9,0,1.7,0,2.6
					c0,0.1,0,0.1,0,0.2c-0.2-1.3-0.5-2.6-0.9-3.9c-0.1-0.3-0.2-0.6-0.3-0.9c0.2,0,0.4,0,0.6,0.1c0.9,0.1,1.9-0.1,2.5-0.8
					c0.5-0.6,0.6-1.4,0.4-2.1s-0.7-1.4-1.2-1.9c-2-1.8-4.9-2.2-7.6-2.3c-2.5-0.1-5,0-7.4,0.6l0.1,0.2c-0.2,0.5-0.4,1.1-0.6,1.6
					c-0.2,0-0.3,0.1-0.5,0.1c0.3-0.5,0.7-1,0.8-1.5c0.2-0.9-0.1-1.9-0.9-2.3c-0.6-0.2-1.2-0.1-1.8,0c-2.1,0.5-4.4,1.2-5.6,3
					c-1,1.6-0.9,3.7-1.6,5.4c-0.6,1.7-2,3.4-1.4,5.1c0.4,1.4,1.9,2.1,3.2,2.7c0.3-0.9,0.5-1.7,0.8-2.6c0,0.3,0,0.7,0,1
					c0,1.2,0.3,2.2,1.1,2.9c0.1,0.7,0.2,1.3,0.4,1.9c0.6,1.9,1.8,3.6,3.1,5.1c0.1,0.1,0.2,0.2,0.3,0.3c-0.1,0.9-0.2,1.8-0.3,2.8
					c0,0.1,0,0.2-0.1,0.3c-0.1,0-0.1,0-0.2-0.1c-0.4,0.7-0.8,1.5-1.2,2.2c0,0,0,0.1,0,0.1c-0.3,0.3-0.6,0.6-1,0.8
					c-2.8,1.1-5.5,2.3-8.3,3.4c-1,0.3-1.9,0.6-2.6,0.9c0,0,0,0,0,0c-0.7,0.1-1.4,0.4-2.1,0.7c-0.7,0.3-1.3,0.7-1.9,1.1
					c-1.2,0.7-2.2,1.6-2.7,3c-0.3,0.7-0.3,1.5-0.2,2.3c0,0.8,0,1.7,0.1,2.5c0.3,3.4,0.9,6.8,1.9,10.2c0.3,1.1,0.7,2.3,1.8,2.7
					c0.4,0.2,0.9,0.2,1.4,0.2c0.3,0.1,0.6,0.1,0.8,0.3c0.2,0.1,0.3,0.3,0.3,0.6c-1.1,3.6-0.9,7.5,0.4,11c0,2.7-0.2,5.4-0.4,8.1
					c-0.2,1.6-0.4,3.3-0.5,4.9c-0.2,1.6-0.3,3.3,0.1,4.8c0,0.1,0.1,0.2,0.1,0.3c0.5,1.9,1.6,3.7,2.8,5.3c1.7,2.4,3.6,4.8,5.5,7.1
					c0.1,0.1,0.2,0.3,0.3,0.4c1.8,2.5,3.7,4.9,6,6.9c0.4,0.4,0.9,0.7,1.3,1c1.1,1.1,2.1,2.3,3,3.6c2.8,4.6,2.5,10.4,1.5,15.6
					c-1,5.3-2.8,10.5-2.6,15.8l0.3,0.1c0,0,0,0.1,0,0.1c0.7,0.3,1.5,0.6,2.2,0.9c-0.2,0.9-0.5,1.7-0.7,2.6c-0.5,2.2-0.7,4.7,0.6,6.6
					c1.2,1.7,3.5,2.4,5.6,2.8c1.2,0.3,2.4,0.5,3.6,0.7c1,0.2,2,0.3,2.9,0.1c1-0.1,1.9-0.6,2.5-1.5c0.8-1.3,0.3-3.1-0.8-4.2
					c-1.1-1.1-2.6-1.7-4-2.2c-0.3-0.1-0.7-0.3-0.9-0.5c-0.2-0.2-0.3-0.5-0.3-0.8c0-0.2,0-0.4,0-0.6c0.9,0.3,1.8,0.5,2.7,0.7
					c0.9-2.6,1.6-5.2,2.2-7.8c0.2-0.7,0.3-1.5,0.4-2.2l0-0.1c0,0,13.4,2,12.3-4.1l2.5-20.8c0,0-0.6-4.8-1.4-8.2
					c0.3,0.1,0.6,0.3,0.8,0.4c2.9,1.7,5.7,3.5,8.6,5.2c0.7,0.5,1.5,0.9,2,1.7c0.5,0.7,0.6,1.7,0.6,2.5c0.6,8.3-1.1,17,1.9,24.7
					c0.3,0.8,0.7,1.6,1.5,1.9c0.6,0.2,1.3,0,2-0.3c-0.2,2.8-0.3,5.6,0.3,8.3c0.2,0.6,0.4,1.3,0.8,1.8c0.4,0.5,1.1,0.8,1.7,1
					c2.9,1.1,6.3,1,9.2-0.2c0.6-0.3,1.2-0.6,1.4-1.3c0.1-0.4-0.1-0.9-0.3-1.3c-0.7-1.2-1.6-2.1-2.7-2.9c-1.2-0.8-2.6-1.2-3.6-2.2
					c-1-1-1.4-2.6-1.1-4.1c0.5,0,0.9-0.1,1.4-0.3c1.3-0.5,2.1-1.8,2.5-3.2l0,0.1c2.8,0.2,5.7,0.2,8.6,0.1c0.4,0,0.8-0.1,1.1-0.3
					c0.1-0.2,0.2-0.4,0.2-0.6C119.1,622.1,119.1,621,118.4,620.4z M75.8,573L75.8,573c0.2,0.1,0.4,0.2,0.6,0.2
					c-0.1,0.6-0.2,1.1-0.2,1.7l-1.6-4.5C75,571.3,75.4,572.1,75.8,573z M46.2,496.8c0,0.2,0,0.4,0,0.6c-0.3,0.2-0.6,0.5-0.8,0.8
					C45.6,497.8,45.9,497.3,46.2,496.8z M44,518.9c-1.1,0.5-2.3,0.9-3.5,1.3L44,518.9z M99.9,627.8c1.1-0.3,2.3-0.6,3.5-0.6
					c0.1,0,0.2,0,0.3,0L99.9,627.8z"/>
			</g>
		</g>
		<g>
			<path d="M82.3,632.6c-0.8-0.3-1.7-0.4-2.5-0.6c-2.6-0.8-4.1-4.1-3.1-6.6l-6.1,0c-0.4,3.3-0.7,6.6-0.8,10c0,0.5,0,1.1,0.2,1.6
				c0.2,0.5,0.7,0.9,1.2,1.2c2.9,1.8,6.7,2.3,10,1.2c0.9-0.3,1.8-0.7,2.4-1.5C85,636.2,84.2,633.4,82.3,632.6z"/>
		</g>
	</g>
	<g>
		<path d="M488,872.1c-2.5-13.9-0.3-28.6-5-41.8c-2.3-6.5-6.3-12.7-6.3-19.6l0,0.1c0,0,0-0.1,0-0.1l-0.8-3.9c1.9-3.5,3.6-7.2,5-11
			c1.6-4.2,2.8-9.3,0.4-13.1c-1.1-1.7-2.8-2.9-4.5-4c-2.7-1.8-5.3-3.5-8-5.3c-0.1-1.7-0.4-3.5-0.8-5.2c0.2,0.1,0.4,0.1,0.6,0
			c0-0.1,0-0.2,0.1-0.3c0.3-0.2,0.6-0.5,0.8-0.8c0.1-0.1,0.2-0.2,0.3-0.2c0.4-0.1,0.7-0.3,1-0.6c0.4-0.2,0.8-0.5,1-0.9
			c0.2-0.5,0.2-1.1,0.4-1.6c0.1-0.3,0.3-0.5,0.5-0.7c0.8-1.1,1-2.7,0.5-4.1c-0.1-0.5-0.2-0.9-0.5-1.3c-0.1-0.1-0.1-0.2-0.2-0.3
			c-0.2-0.6-0.1-1.2-0.4-1.7c-0.2-0.6-0.7-1-1.2-1.4c-0.5-0.4-1.1-0.8-1.8-0.9c-0.5-0.1-0.9,0-1.4,0c-0.1-0.2-0.2-0.4-0.4-0.6
			c-0.7-0.7-2-0.9-2.9-0.4l0,0.1c-0.1,0-0.1,0-0.2,0.1l0,0.1c-0.2,0.1-0.3,0.3-0.4,0.4c0,0,0,0,0,0c0,0,0-0.1,0-0.1
			c-0.1-0.4-0.5-0.8-0.5-1.2c0-0.3,0.2-0.5,0.3-0.8c0.1-0.3-0.1-0.6-0.2-0.9c-0.1-0.3-0.3-0.7-0.5-0.9c-0.2-0.3-0.6-0.5-0.9-0.5
			c-0.5,0-0.9,0.3-1.3,0.5l0,0c-0.1,0-0.1,0.1-0.2,0.1l0.1,0.1c-0.1,0-0.1,0-0.2,0c-0.4,0-0.8,0.1-1.2,0.3c-0.1,0-0.1,0.1-0.2,0.1
			c0,0,0,0,0,0c-0.3,0.2-0.5,0.5-0.5,0.8c-0.3-0.4-0.7-0.7-1.1-0.9c-0.5-0.1-1,0-1.3,0.4c-0.2,0.1-0.3,0.3-0.4,0.4
			c-0.1,0.3-0.1,0.6-0.2,0.9c-0.2,0.3-0.5,0.5-0.7,0.8c-0.1,0.1-0.2,0.2-0.2,0.3c-0.2,0-0.4,0.1-0.6,0.1c-0.3,0.1-0.5,0.2-0.7,0.4
			c-0.2,0.1-0.4,0.3-0.5,0.5c-0.3,0.5-0.3,1.2,0.1,1.6c0.4,0.5,1.1,0.6,1.7,0.4c0.1,0,0.2-0.1,0.3-0.2c0,0,0,0,0,0
			c0.1,0,0.1,0,0.2-0.1c0-0.1,0.1-0.1,0.1-0.2c0-0.2,0.1-0.3,0-0.5l0.7,0.1c0-0.1,0-0.1,0-0.2l0.2,0c0.1-0.3,0-0.6,0-1
			c0.5,0.1,1,0.2,1.5,0.2c-0.1,0.1-0.3,0.1-0.4,0.2c-0.8,0.4-1.6,0.9-2.3,1.8c-0.5,0.5-0.9,1.2-1.1,2l1.1-0.5c0.9-0.3,1.9-0.3,3-0.2
			c1.4,0.2,2.9-0.4,3.9,0.6c0.1,0.1,0.2,0.2,0.3,0.3c-0.7-0.3-1.5-0.5-2.3-0.6c-1.9-0.3-4.2-0.2-5.5,1.1c-1.1,1.2-1.1,2.9-0.8,4.4
			c0.2,0.8,0.4,1.6,0.6,2.4l-0.4,0c0.1,0,0.3,0,0.4,0c0.2,0.7,0.3,1.3,0.4,2c0,1.1-0.2,2.3-0.1,3.4c0.1,1.2,1.4,2.3,2.1,3.4
			c0.3,0.5,0.6,1,1,1.4l-0.3,0.1c-0.9,0.2-1.8,0.6-2.5,1.1c-0.9,0.5-1.7,1.1-2.3,1.6c-0.1,0.1-0.3,0.2-0.4,0.3
			c-2.5,2-3.1,5.4-3.2,8.6c-0.1,3.2,0.2,6.5-1.2,9.3c-0.2,0.5-0.5,1-1,1.3c-0.4,0.3-0.9,0.4-1.3,0.5l-10.8,2.5
			c-0.4,0.1-0.7,0.3-1,0.6c-0.6-0.1-1.1-0.2-1.7-0.2c-1.2-0.1-2.4-0.1-3.5,0.5c-0.1,0.1-0.3,0.2-0.4,0.3c-4.5,1.3-8.8,11.5-8.8,11.5
			l23.3,8.3c3.9-1.9,6.2-8.3,6.2-8.3l-0.2-0.3c0.9-0.3,1.7-0.7,2.5-1.2l-0.2,0.7l0-0.4c-0.7,1.4-1.3,3.8-1.8,6.6
			c-0.2,1.2-0.4,2.5-0.5,3.7c0,0.4,0,0.8-0.1,1.2c-0.1,1.5-0.2,3.1-0.3,4.7c-0.2,3.6-0.2,7.1,0.3,11c0,0.3,0.1,0.6,0.1,1l-3.2,41.5
			c-0.7,1.7-1,3.4-0.4,5.2c2.5,0.5,4.8,0.7,7.2,0.7c5.9,0.1,11.7-0.8,17.7-0.8c1.2,0,2.4,0,3.7,0.1c5.6,0.4,11.2,1.5,16.7,2.4
			c0.1,0,0.2,0,0.3,0c0.3,0,0.5,0,0.7-0.2c0.2-0.2,0.2-0.5,0.2-0.7C490.7,883.2,489,877.7,488,872.1z M459.6,753.1
			C459.6,753.1,459.6,753.1,459.6,753.1C459.6,753.2,459.6,753.2,459.6,753.1c0,0.1,0.1,0.1,0.1,0.2c-0.2,0-0.4,0.1-0.5,0.1
			c0.1-0.3,0-0.6-0.1-0.8c-0.2-0.5-0.6-1-1-1.4l0.2-0.1c0.1,0.2,0.2,0.4,0.3,0.6C458.9,752.2,459.3,752.6,459.6,753.1z M451.5,808.3
			c0.2-0.7,0.4-1.3,0.6-2L451.5,808.3c-1,0-2-0.2-3.1-0.3c-1.2-0.1-2.4-0.1-3.5,0.5c-0.2,0.1-0.5,0.3-0.6,0.6l-10.1-4.5l0-0.3
			c0.3,0.1,0.6,0.2,0.9,0.2c2.6,0.5,5.3,0.7,8,0.6c3.3-0.1,6.5-0.6,9.7-1.4L451.5,808.3L451.5,808.3z"/>
		<path d="M452.1,806.3l0.7-2.5C452.6,804.6,452.3,805.4,452.1,806.3z"/>
	</g>
	<path d="M593.5,806.9c-0.8-0.6-1.3-1.5-1.5-2.5c7.9-11.8,8.1-27.5,3.5-40.8c-3-8.7-12.2-9.1-15.4-3c0,0,0,0,0,0
		c0.2-0.4,0.3-0.9,0.3-1.3c-0.1-0.6-0.4-1.1-0.6-1.6c-0.2-0.7-0.2-1.5-0.2-2.3c0.1-1.8,0.4-3.7,0.8-5.4c0.2-0.8,0.5-1.7,0.6-2.6
		c0.5-1.4,0.8-3,0.8-4.5c1-1.7,1.7-3.4,1.5-4.8c-0.3-2.1-1.7-4-3.4-5.2c-1.7-1.2-3.7-1.7-5.7-2c-2-0.3-4.1-0.3-5.8,0.8
		c-0.4,0.3-0.8,0.6-1.1,1c-0.1,0-0.2,0-0.3,0c-0.1,0.4-0.3,0.8-0.4,1.3c0,0.1-0.1,0.2-0.1,0.4l-1,1.5c0.3-0.2,0.6-0.4,0.9-0.5
		c0,0,0-0.1,0-0.1c0,0,0,0.1,0,0.1c0,0,0,0,0,0c-0.3,1.9-0.2,3.8,0.3,5.7c0,0.2-0.1,0.4-0.1,0.6h-1.8v3.2h1.3
		c-0.2,3.1,0.8,6,2.7,7.7c0,0.3,0,0.7,0,0.9c-0.2,1-0.6,1.9-1.1,2.6c-0.1,0.1-0.1,0.1-0.2,0.2c-2.7-3.5-9.4-2.6-12.1,4.1
		c-1,2.6-1.5,5.4-1.9,8.1c-1.6,10.5-3.2,20.9-4.8,31.4c3.9-1.3,8.4-0.8,11.9,1.5c0-0.1,0-0.2,0-0.3c0,0.9,0.1,1.7,0.2,2.5
		c-0.1,0.1-0.3,0.1-0.4,0.2c-1.6,1.1-1.9,3.5-1.9,5.5c-0.8,19.5-1.6,38.9-2.3,58.4c-0.1,2.9-0.2,5.8,0.8,8.4c0.2,0.5,0.5,1,0.8,1.4
		c-3.1,1.2-6.4,3.1-8.5,3.9c-2,0.8-3.1,2.4-1.1,3.8c1.4,1,4.9-0.1,6.4-0.2c3.1-0.3,7.6,0,10.3-1.8c1.8-1.2,2.2-3.2,1.4-4.8
		c1.4-1.9,2.2-4.8,2.6-7.3c2.2-13.1,4.4-26.2,6.5-39.4c0.6,12.8,2.2,25.5,4.8,38c0.7,3.3,1.5,6.7,3.5,9.3c-2.9,1.2-5.8,2.8-7.8,3.6
		c-2,0.8-3.1,2.4-1.1,3.8c1.4,1,4.9-0.1,6.4-0.2c3.1-0.3,7.6,0,10.3-1.8c2.1-1.3,2.3-3.9,0.9-5.5c-0.6-19.3-1.2-38.7-1.9-58
		c-0.1-3.3,0.2-8-0.8-11.6c0,0,0,0,0,0c1.8-0.6,2.3-3.6,0.9-4.9c0.1,0.1,0.3,0.2,0.4,0.3C592,805.6,592.7,806.3,593.5,806.9z"/>
	<path d="M625.4,794.7c0.1,0,0.2,0,0.3,0.1c-0.4-0.9-0.8-1.8-1.2-2.8c-0.2-0.6-0.4-1.3-0.7-1.8c-0.4-1-0.7-2-1.1-3.1
		c-0.3,0.2-0.6,0.4-0.9,0.6c-1-0.7-2.1-1-3-0.9c-3.2-5-3.8-9.6-3.5-16.5c0.1-2.6-1.5-8.7-1.9-11.3c-0.4-2.6-1.8-5.2-4.2-6.2
		c-2.5-1-4.8-0.4-6.6,1.1c-0.3,0.1-0.6,0.2-0.9,0.3c-1.4,0.3-2.9,1.9-4.2,3.8c-2.3,3.3-2.8,7.5-3.2,11.5c-0.4,4-0.7,8.1-2.6,11.6
		c-1.3,2.4-3.4,4.4-5.9,5.4c0.6-0.2,1.2-0.3,1.8-0.5c-0.7,0.9-1.3,1.9-1,2.5c0,0,0,0,0,0c-0.7,1.6-1,3.5-1.1,5
		c-0.4,4.8-0.8,9.6-1.3,14.4c-0.2,2.6-0.5,5.3,0.4,7.8c0.1,0.2,0.2,0.5,0.3,0.7c1.5,3.4,5,5.6,8.7,6.7c-0.1,0.1-0.2,0.2-0.4,0.4
		c-3.2,3.9-4,11.6-3.1,16.4c0.6,6.6,2.9,12.9,5.1,19.1s4.2,12.7,4.3,19.3c0-0.7,0.4-1.3,0.9-1.7c-0.9,3.7,0.5,10.2,2.1,15.6
		c-0.2,0.9-0.4,1.8-0.7,2.7c-1.4,5.6-3.2,9.2-4.4,12.6c-0.3,0.3-0.5,0.6-0.7,1c-0.3,0.8-0.4,1.6-0.4,2.4c-0.1,0.3-0.1,0.6-0.2,0.9
		c-0.5,2.5,1.3,2.9,0.9,5.4c-0.2,1.1-0.3,2.1-0.3,3.2c-0.2,0.7-0.4,1.5-0.6,2.2c-0.4,1.9,1.3,3.5,2.4,5.2c1.4,2.2,2.9,3.4,4.9,1.8
		c2.1-1.6,2.3-5.1,0.4-7c0.5-1.8-0.4-4.9-0.7-6.7l0.3-0.4c0-1.6,0.2-3.2,0.6-4.8c0.1,0,0.2,0.1,0.3,0.1c0.4-0.5,0.3-0.9,0-1.3
		c0.5-1.9,1.3-3.7,2.1-5.4c1.1,2.8,2.1,5.8,3.2,8.9c0,0,0,0-0.1,0c1,4.5,2.1,8.9,3.1,13.4c0.7,3,1.2,4.2,3.7,5.9
		c0.2,0.6,0.6,0.7,1.1,0.7c1.7,0.9,4.1,1.9,5.4,1.3c1.7-0.7,1.4-1.9,1.1-3.7c-0.1-0.8-0.2-3-1.4-3.1c-0.3,0-0.6,0.2-0.9,0.3
		c-0.2-0.6-0.5-1.1-0.7-1.6c-2.5-5.2-4.2-9.6-5.4-14c0.1-0.3,0.1-0.5,0.2-0.8c-0.1,0-0.3,0-0.4-0.1c-1.4-5.6-2.1-11.3-2.3-18.4
		c1.1-2,2.1-4,2.9-6.1c1.3-3.4,1.9-7.3,1.3-10.8c0.3,0,0.5,0,0.8,0c4.5-14.5,6.2-29.9,4.7-45c-0.2-2.3-0.6-4.7-1.5-6.9
		c0.4,0.4,0.8,0.8,1,1.3c-0.2-1.5-1-2.9-2.2-3.8c0,0,0,0,0,0c0,0,0,0,0,0c0,0,0,0,0,0s0,0,0,0c0,0-0.1,0-0.1-0.1c0,0,0.1,0,0.1,0.1
		c0.5,0.2,1,0.5,1.5,0.7c-0.6-0.9-1.4-1.7-2.3-2.2c0.7-0.1,1.3-0.2,2-0.6c2.7-1.4,3.4-4.8,3.7-7.7c0.5-5.5,0.4-11.1-0.3-16.6
		c0.2,0.1,0.4,0.2,0.6,0.3C625.6,795.2,625.5,795,625.4,794.7z M597.2,921.9c0,0.1,0.1,0.2,0.1,0.3c-0.1-0.1-0.1-0.1-0.2-0.2
		C597.1,921.9,597.2,921.9,597.2,921.9z"/>
	<path d="M552.5,810.6c0.4,2.1,1.4,4.2,3.1,5.5c0.9,0.7,2,1.1,3.1,1.3c-0.4-1.2-0.9-2.3-1.3-3.5c0.7,0.6,1.5,1.1,2.2,1.7
		c0-0.6,0-1.1-0.1-1.7c0.4,0.1,0.7-0.2,0.8-0.6c0.1-0.3,0-0.7,0-1.1c-0.3-1.5-0.6-3.1-0.9-4.6c-0.2-1-0.4-2.1-1.1-3
		c-1.1-1.5-4-2.2-5.4-0.6C551.6,805.5,552.2,808.9,552.5,810.6z"/>
	<g>
		<path d="M553.7,789.1c-0.5-2.3-1.1-4.1-1.1-4.1c-1.4-6.4-0.9-13.1-3.1-19.3c-0.2-0.7-0.5-1.4-1-1.9c-0.4-0.5-1-0.9-1.6-1.2
			c-3.6-2.3-7.3-4.7-10.9-7v0c0,0-0.1,0-0.1-0.1l0.1,0.2L536,756c0,0,0,0,0,0l0-0.5c-0.1,0.1-0.2,0.2-0.3,0.2c0,0,0,0,0,0l-0.5,0.1
			c0.6-1.5,1.2-3.6,2.3-4.8l0,0c0.3-0.3,0.6-0.6,0.9-1c0.5-0.8,0.8-1.7,0.9-2.7l0.6-0.3c1.1-0.5,2-1.5,2.3-2.6
			c0.2-0.7-0.1-1.7-0.8-1.8c-0.3,0-0.6,0.1-0.9,0.3c0.2-0.4,0.4-0.9,0.4-1.3c0.1-1,0.3-2.1,0.4-3.1c0.2-1.2,0.3-2.5-0.1-3.7
			c-0.4-0.9-1.2-1.8-1.4-2.8c-0.1-0.5,0-1-0.1-1.6c-0.3-2-3-3.1-5.1-2.6c-0.8,0.2-1.5,0.5-2.3,0.4c-0.5-0.1-0.9-0.3-1.4-0.5
			c-0.9-0.4-2-0.5-3-0.3c-0.5,0.1-1.1,0.3-1.5,0.7c-0.6,0.6-0.7,1.7-0.1,2.4l0.2,0.2c-0.3,0.1-0.7,0.3-1,0.4l0.4-0.9
			c-0.6-0.9-2-1.3-3-0.8c-0.2,0.1-0.5,0.3-0.6,0.5c-0.1,0.4,0.2,0.7,0.2,1.1c0.1,1.1-1.7,1.5-2.2,2.6c-0.3,0.6-0.1,1.2-0.2,1.8
			c-0.2,0.8-0.9,1.4-1,2.2c-0.1,1.2,1.1,2.1,2.3,2.7l0.2-0.4c0,0.3-0.1,0.6-0.1,0.9c-0.6-0.2-1.3-0.3-1.6,0.2
			c-0.2,0.2-0.2,0.5-0.2,0.7c-0.1,0.7-0.1,1.4,0.1,2.1c0.2,0.7,0.9,1.3,1.6,1.3l0.5,0.1c0.1,0.8,0.2,1.7,0.5,2.5
			c0.5,1.8,1.5,3.5,3.1,4.7c0,0.4,0,1-0.1,1.4c0-0.2,0-0.4,0-0.4l-0.5,0.4l0,0l-3.1,2.3c-0.2,0.1-0.4,0.2-0.6,0.3
			c-3.3,1.2-6.6,2.5-9.9,3.7c-0.7,0.2-1.3,0.5-1.8,1c-0.6,0.5-0.9,1.3-1.2,2c-1.5,3.8-3,7.6-3.9,11.5c-0.8,3.7-1.1,7.5-1.9,11.2
			c-0.5,2.5-1.3,4.9-1.7,7.4c-0.4,2.5-0.2,5.1,1,7.4c0.9,1.7,2.4,3,3.5,4.6c0.7,1,1.3,2.1,1.9,3.2v1.5c0,0,1.9,71.9,3.4,77.9
			c0,0,1,0.8,2.7,1.5c0,0.3,0,0.6,0,0.9c-0.2,2.3,0.4,4.6,1.8,6.5c0.3,0.5,0.7,0.9,1.2,1.3c0.4,0.4,1,0.7,1.5,0.8
			c1.3,0.3,2.7-0.4,3.6-1.3c1.8-1.8,2.3-4.4,2.6-6.8c0-0.1,0-1.1,0-1.7c0.7-0.3,1.4-0.7,2.2-1.2c0,0-3.8-25.3-2.2-29.5
			c1.5-4.1,3.3-26.5,3.3-26.5s0.4,54.2,1.7,58.5c0,0,0.8,0.5,2.1,1c0.1,1.9,0.7,3.7,1.8,5.3c0.3,0.5,0.7,0.9,1.2,1.3
			c0.4,0.4,1,0.7,1.5,0.8c1.3,0.3,2.7-0.4,3.6-1.3c1.8-1.8,2.3-4.4,2.6-6.8l-0.1,0c0.2-0.1,0.5-0.2,0.7-0.4c0,0,0.6-3.2-2-14.4
			c0,0,4.4-48.3,3.9-53.8c-0.5-5.5,0-12.2,0-12.2l0-2.3c3.6-3.1,8.2-5.4,9.8-9.7C555,795.1,554.5,792.1,553.7,789.1z M531.3,757
			c-2.6-0.1-4.1-0.7-4.9-1.4c1.6,0.7,3.3,1.2,5.1,1.3L531.3,757z M539.5,743.2l0.1,0.1l-0.1,0.4
			C539.5,743.6,539.5,743.4,539.5,743.2z"/>
	</g>
	<g>
		<path d="M155.1,743.9c-6.6-15.1-11.5-31.8-8-47.9c0.6-2.9,1.6-5.8,2-8.8c0.7-4.4,0.4-8.9-0.1-13.3c1.1-0.4,2.2-0.9,3.4-1.2
			c1.5-0.3,3-0.2,4.4-0.8l0.1-0.2c0,0,2.7-5,2.5-9.1c-0.2-4.1-0.7-8.3-0.7-8.3c1.1-3.4,2.3-7,1.6-10.5c-0.4-2.1-1.4-4-1.7-6
			c-0.6-4,1.2-8,1-12c-0.1-2.3-0.9-4.5-1.9-6.6c-2.3-4.8-5.6-9.1-9.6-12.5c-1.6-1.3-3.3-2.6-5.4-2.9c-2.7-0.4-5.3,0.9-7.9,1.7
			c-2,0.7-4.3,1.2-5.6,2.8c-0.6,0.9-0.9,1.9-1.1,2.9c-0.4,1.8-0.8,3.6-0.2,5.4c0.5,1.5,1.5,2.7,2.6,3.8c1.5,1.6,3.4,5.6,5,7.1
			l2.3,1.6c-0.3,1-0.8,2-1.4,2.9c-2-1.3-4.6-1.6-7.1-1.6c-1,0-2.1,0.1-3.1,0.4c-1.1,0.4-2,1-2.8,1.7c-6.9,5.4-12.8,12-17.4,19.3
			c-0.2,0.3-0.3,0.5-0.3,0.8c0,0.3,0.2,0.6,0.4,0.8c1.8,2,4.3,3.3,6.7,4.7c5,2.9,6.8,4.9,11.1,8.6c-1.4,5.5-2.4,11-3,16.6
			c-0.2,2.4-0.4,5,0.5,7.3c0.8,2.2,2.4,4,3.4,6.1c1,2.3,1.2,4.9,1.3,7.5c0.1,2.3,0.2,4.5-0.1,6.8c-0.4,2.5-1.3,4.9-2.2,7.2
			c-3.9,10.4-6.7,21.1-8.6,32c0,0.2-0.1,0.5-0.1,0.7c-0.1,2.3-2.7,3.2-1.9,5.6c0.4,1.3,1.7,2.1,3,2.3c7.1,0.9,14.8,2.2,21.6-0.2
			c2.2-0.7,4.3-1.9,6.6-1.7c1.3,0.1,2.4,0.6,3.6,1c3.5,1.1,7.3,1.3,10.9,0.5c0.4-0.1,0.8-0.2,1-0.5c0.3-0.4,0.2-0.9,0.1-1.4
			C158.9,752.3,156.9,748.2,155.1,743.9z M127,654.5l0.5-5.8C127.5,650.7,127.3,652.6,127,654.5z M116.4,654.6c-0.5-0.4-1-1-0.9-1.6
			c0.1-0.4,0.4-0.7,0.7-0.9c3.4-3.2,6.7-6.4,10.1-9.6c0.4,0.3,0.8,1,0.8,1.5c0,0.3,0.1,0.3,0.2,0.3c0,0.2,0.1,0.4,0.1,0.7
			c-1.8,4.8-2,10-2.1,15.1l2.2-14.5c0.1,0.9,0.1,1.9,0.1,2.9c-0.2,2.4-0.5,4.7-0.7,7.1c-0.4,2.1-0.8,4-1.3,5.7
			C122.3,659.3,119.2,657.1,116.4,654.6z"/>
	</g>
	<g>
		<path d="M203.9,650.4c-2.4-3-5.7-5.2-7.4-8.6c-0.6-1.2-1-2.5-1.4-3.7c-1.2-3.7-1.6-6.5-3.4-9.9c-0.7-1.2-1.7-3.5-2.8-4.4
			c-1.1-0.9-2.4-1.8-3.8-2.2c-1.6-0.5-4.1-0.2-5.8-0.3c0,0-3.1-0.1-4.1,2.7c-0.1,0.3,0,0.5,0.1,0.7c-0.3,0.5-0.4,1-0.4,1.4
			c0.1,1.4,0.7,3.5,1.4,4.8c-0.3,3.3,0.7,5.6,2.5,8.4c0.6,0.9,1,1.2,2.2,1.2c0.6,0,1.8-0.5,2.5-0.9c0,0.9,0.1,1.8,0.1,2.6
			c0,0.3,0,0.5,0.1,0.8l-0.3,0c-2.7,0.6-3.1,3.2-4.2,5.4c-1.6,3.2-3.2,6.4-3.7,9.9c-0.1,1-0.2,2,0.1,3c0.6,1.9,2.4,3.5,2.9,5.4
			l-1.4-2l-3,1.1c-3.4,1.9-7.3,3.2-11.2,2.6c-2.2-0.4-4.2-1.4-6.3-1.8c-1.2-0.2-2.8-0.1-3.4,0.9c-0.4,0.7-0.3,1.7-0.1,2.5
			c0.1,0.3,0.2,0.7,0.4,0.9c0.2,0.3,0.7,0.4,0.9,0.1l0.3,0c0.2,1,0.4,2.1,0.5,3.1c0.1,0.6,0.2,1.2,0.7,1.5c0.4,0.3,0.9,0.2,1.4,0.1
			c3.3-0.4,6.6-0.7,9.9-0.1c3.2,0.6,6.1,2,9.2,3c1.1,0.3,2.2,0.6,3.4,0.8c-0.1,1.4-0.7,2.7-1.2,4c-1.4,3.6-2.2,7.4-2.5,11.2
			c0,0.5,0.1,1.3,0.4,1.7c-0.8,4.1-1.3,8.3-1.3,12.5c0,3.4,0.3,6.8,1.3,10c0.4,1.4,1,2.8,1.4,4.2c0.7,2.9,0.5,5.8,0.6,8.7
			c0.3,9.3,4.8,17.1,5.4,26l-1.2,0.2c1,4.6-4.3,11.2-4.3,11.2c-2.6,4.4,1.1,5.9,1.1,5.9c0.5-0.1,1-0.3,1.6-0.6c0,0,0.1,0,0.1,0
			c0.6-0.2,1-0.6,1.4-1c0.3-0.2,0.5-0.5,0.8-0.7c0,0.2-0.1,0.3-0.1,0.5c-1.4,3.6,1.6,4.8,1.6,4.8c3.1-0.4,7.8-6.6,7.8-6.6l1.3,2.7
			c0.9-0.1,1.3-0.8,1.5-1.9c0-0.1,0.1-0.1,0.1-0.2c0.2-0.6,0.2-1.3,0.1-2c-0.1-0.7-0.2-1.4-0.3-2.1c-0.2-1.5-0.6-2.9-0.9-4.3
			c-1.2-5.5-2.5-10.9-0.9-16.2l0.8-1.9c0.7-4.7,0.7-9.5,0-14.1c-0.5-2.9-1.2-5.8-1-8.7c0.2-2.9,1.4-5.7,2.4-8.5c0,0,5.1-12,3.7-16.5
			l1.1-6.7c0.2-1.7,0.4-3.5-0.1-5.1c-0.4-1.4-0.7-2.6-1-4c-0.5-2-0.3-4.9,0.3-6.9c0.7-2.3,1.4-4.4,2-6.6c0,0.4,0,0.9,0,1.3
			c0,1.5,0.3,3,0.9,4.4c0.2,0.5,0.4,0.8,0.4,0.8c0.9,1.7,3.4,1.7,4.1-0.1c0.2-0.6,0.2-4,0.3-4.6C208.8,663.6,208.4,656,203.9,650.4z
			 M184.9,697.6l0.3,0c-0.1,0.3-0.1,0.6-0.2,0.8L184.9,697.6z M179.2,671.1c-0.1,0-0.2,0-0.2,0l0-1.6L179.2,671.1z"/>
	</g>
	<path d="M164.1,847.7c-1.8-2.1-4.7-3.3-7.4-3c0,0.2,0,0.4,0.1,0.5c0,0-0.1,0-0.1,0l-3.2-18.3c0,0.4-0.1,0.9-0.1,1.3
		c0-0.3-0.1-0.6-0.1-0.9c0.7-1.5,1.3-3.1,1.9-4.7c1.5-4.1,2.3-9.1-0.5-12.5c-2-2.3-5.1-3.1-8.1-3.8c-4.3-0.9-8.6-2.3-12.9-3
		c3.6-2.9,4.9-9.1,4.9-12.7c0-4.8-3-11.4-3-11.4l-0.3,0.4c0-0.2-0.1-0.5-0.1-0.7c0-0.2-0.1-0.4-0.2-0.6c0.2,0.3,0.4,0.6,0.5,0.9
		c-1.7-4.9-3.9-9.6-6.4-14.1c-0.4-0.7-0.9-1.4-1.4-2c0,0,0,0,0,0c0,0,0,0,0,0c-0.8-0.9-1.7-1.5-2.7-1.7c0,0-0.1,0-0.1-0.1
		c1-0.7,1.8-1.8,2.1-3c-0.3,0.5-1.3,0.1-1.3-0.5c0-0.6,0.7-1.1,1.3-1.1c0.6,0,1.3,0.3,1.8,0.5c-1.3-0.9-1.7-2.6-2-4.1
		c-0.3-1.5-0.5-3-0.8-4.5c-0.3-1.4-0.6-2.9-1.6-4c-0.8-0.9-2.1-1.4-2.9-2.3c-0.7-0.8-0.9-1.8-1.3-2.8c-1.1-3.1-3.3-5.9-6.1-7.8
		c-1.2-0.8-2.5-1.5-4-1.6c-1-0.1-2.1,0.1-3,0.6l-0.6-0.2c0.2,0.1,0.4,0.1,0.5,0.2c0,0-0.1,0.1-0.1,0.1c-0.4,0-0.7,0-1.1,0.1
		c-0.5-0.5-1.3-0.9-2-0.9c-1.4,0-2.6,1-3.6,2c-2.1,1.9-4.3,3.9-5.9,6.3s-2.6,5.2-2.3,8.1c0.2,1.7,0.9,3.5,0.1,5
		c-0.5,1.1-1.7,1.9-2.2,3c-0.7,1.7,0.5,3.9,2.3,4.2c-0.6,0.2-1.2,0.5-1.6,1c-0.4,0.5-0.5,1.3,0,1.7c0.4,0.3,0.9,0.3,1.2,0.7
		c0.5,0.6-0.1,1.4-0.6,1.9c-0.6,0.5-1.3,1-1.1,1.8c0.1,0.5,0.6,0.7,1.1,0.9c-0.1,0.1-0.3,0.1-0.4,0.2c-2.7,1.8-3.6,5.3-3.8,8.5
		c-0.3,5.9,1.2,11.8,4.4,16.8c0.1-0.5,0.3-1,0.5-1.5c0.1,0.2,0.1,0.4,0.2,0.5c-2.2,4.4-3.5,9.2-3.7,14.2c-0.2,4.3,0.6,8.9,3.1,12.4
		c2.3,3.3,5.9,5.5,9.6,7.2c2.5,3,5.5,5.8,8.7,8.1c1.3,1,10.5,7.3,11.9,6.1c-6.7,5.3-11.8,12.4-14.8,20.3c0.3,0,0.5-0.1,0.8-0.1
		c-0.1,0.3-0.1,0.7-0.1,1c-1.5,4.8-3.1,9.6-4.6,14.4c0.7,0.1,1.3,0.3,2,0.4c0.4-1.6,0.8-3.2,1.2-4.9c1,3.7,3.7,6.8,7.1,8.4
		c1.8,0.8,4.2,1,5.4-0.5c0.7-0.9,0.8-2.2,0.6-3.4c-0.2-1.8-0.9-3.6-1.8-5.2c0.1,1.2,0.2,2.4,0.3,3.6c0,0.5,0.1,1.1-0.3,1.5
		c-0.1,0.1-0.2,0.2-0.4,0.2c-0.4-2.3-0.6-4.5-0.7-6.8c0.4,0.5,0.7,1,1,1.5c-0.3-3.1-0.6-6.2-0.9-9.2c0.2-0.9,0.5-2.1,0.7-3.3
		l0.3-0.5c6.1-2.5,11.8-6.3,16.3-11.1c3.7-3.9,6.7-8.8,6.6-14.2c-0.1-2.7-1-5.3-2.4-7.6c1.8-0.1,3.5-0.4,5.3-0.6
		c0.7,4.2,1.5,8.4,2.2,12.6c-0.3,2-0.5,3.7-0.7,4.7c-0.2,1.1-0.4,2.3-0.2,3.4c-0.5,3.7-0.7,7.6-1.4,11.1c1,0.3,1.9,0.7,2.9,1
		c0.2-2.8,0.4-5.7,0.6-8.5c4.4,5.8,11.9,9.1,19.2,8.2C166.5,852.9,165.9,849.8,164.1,847.7z M112.3,871.6c-1-1.2-1.8-2.6-2.5-4.1
		C110.6,868.9,111.4,870.3,112.3,871.6z M111.6,762.8C111.6,762.8,111.6,762.8,111.6,762.8C111.6,762.8,111.6,762.8,111.6,762.8
		C111.6,762.8,111.6,762.8,111.6,762.8z M106,761.8c-0.6-0.3-1.2-0.7-1.7-1.2c0-0.2-0.1-0.4-0.1-0.6
		C104.8,760.7,105.4,761.3,106,761.8z M101.6,765.6c-0.1,0.1-0.2,0.3-0.3,0.4c0-0.3-0.1-0.6-0.3-0.8
		C101.2,765.3,101.4,765.4,101.6,765.6z M128.6,795.4c0.5-1.3,1.1-2.5,1.6-3.7c0.7-1.5,1.3-3.2,1.4-4.9c0,0,0.1,0,0.1,0
		C131.3,790.1,129.4,794.9,128.6,795.4z M155.2,844.1c-0.7-0.6-1.2-1.4-1.6-2.2c-0.7-1.5-0.6-3.3-0.6-4.9c0-0.3,0-0.8,0.1-1.5
		c0,0.6,0,1.2,0.1,1.7C153.5,839.6,154.1,842,155.2,844.1z"/>
	<g>
		<path d="M235.7,820.2l-3.7-1.5c0,0-2.1,1.4-2.4,2.1l-22.7,0c-2.8-2.6-5.5-5.2-8.3-7.8c-1.1-1-2.2-2-3.6-2.5l0,0.1
			c-0.1-0.3-0.3-0.5-0.5-0.8c-0.1-0.2-0.3-0.3-0.3-0.5c0.1-0.3,0.3-0.6,0.5-0.8c0.2-0.3,0.2-0.5,0.2-0.8c0.1-0.6-0.1-1.3-0.6-1.7
			c-0.6-0.6-1.4-0.9-2.3-0.9c-0.5,0-1.1,0.1-1.4,0.4c-0.2,0.3-0.3,0.6-0.2,1c0,0.4,0.1,0.8,0.2,1.2c0.1,0.2,0.1,0.4,0.2,0.6
			l-0.2-0.1c-1-0.7-2.5-0.7-3.5-0.1c-0.1,0.1-0.2,0.1-0.3,0.1c-0.1,0-0.2-0.2-0.2-0.4c-0.1-0.7-0.2-2.2-0.2-3.3
			c0.1-0.1,0.2-0.3,0.2-0.5l2.7-0.4c1.2,0.3,4.1-0.6,5.1-1.3c1.1-0.7,1.9-3.7,1.6-4.9c-0.3-1.1-1.4-1.8-1.9-2.8
			c-0.6-0.9-0.7-2.1-1.4-2.9c-0.3-0.3-0.6-0.5-1-0.7c-1.5-1-2.9-2.4-3.8-3.9c-0.5-0.7-0.9-1.5-1.4-2.2c-0.9-1.1-2.4-1.8-3.8-1.9
			c-1.1-0.1-2.1,0.2-3,0.8c0-0.1,0-0.1,0-0.2c-0.1-0.1-0.2-0.1-0.3-0.1c-1.3-0.1-2.6-0.1-4-0.1c-0.9,0-1.8,0.1-2.5,0.7
			c-0.5,0.4-0.9,1-1.3,1.6c-0.6,0.9-1.2,1.9-1.3,3c-0.1,0.8,0,1.7-0.3,2.5c-0.2,0.6-0.6,1-1,1.4c-1.4,1.5-2.8,3-3.3,5
			c-0.1,0.4-0.2,1,0.1,1.3c0.2,0.3,0.6,0.4,0.9,0.6c0.8,0.4,1.4,1.2,1.5,2.1c0.1,0.8,0,1.8,0.5,2.4c0.3,0.4,0.8,0.5,1.2,0.5
			c1.6,0.3,3.2,0.5,4.9,0.5c0.6,0,1.2,0,1.8-0.2c-0.1,0.4-0.3,0.7-0.4,1.1c-0.3,0.6-0.5,1.2-0.8,1.8c0,0.1-0.1,0.2-0.2,0.3
			c-0.1,0.1-0.2,0.1-0.3,0.2c-1.6,0.7-3.2,1.3-4.9,1.8l1,3.6c-0.2-0.4-0.5-0.8-0.8-1.2c-0.1-0.2-0.3-0.4-0.3-0.6
			c0-0.2,0.1-0.4,0.1-0.6c0-0.1,0-0.2,0-0.3c0,0,0,0,0,0c0.1-0.8-0.3-1.6-1-1.9c-0.7-0.3-1.6,0-2.1,0.6c-0.5-0.7-1.6-1-2.3-0.6
			c-0.4,0.3-0.7,0.8-0.6,1.3c0,0.4,0.1,0.9,0.4,1.2c-4.9,0-9.7,2.2-14.6,2.9c-5.5,0.8-11.1-0.2-16.3-2.3c-5.2-2-9.9-5-14.5-8.2
			c-2.3-1.6-4.6-3.2-6-5.6c-0.8-1.4-1.3-2.9-2.3-4.1c-1-1.2-2.9-2-4.2-1.1c-1.7,1.1-1.2,3.7-0.2,5.4c1,1.7,2.4,3.5,2.1,5.5
			c-0.1,0.3-0.2,0.7-0.1,1c0.2,1.1,1.6,1.3,2.7,1.4c3.8,0.4,7,3.1,10.1,5.4c3,2.3,6.2,4.5,9.5,6.5c3.1,1.9,6.4,3.6,10,4
			c3,0.4,6.1-0.2,9.1-0.3c6.7-0.3,13.5,1.4,20-0.2c0,0,0,0,0,0c-0.8,0.6-1.5,1.4-2.3,2.4l0.1,0.2c0,0,0,0.1-0.1,0.1l3.2,8.2
			c0.6,2.3,0.8,4.7,0.8,7.1c-0.1,5.4-1.6,10.9-3.5,16c-2.8,7.5-6.5,14.6-8.5,22.3c-1.8,6.9-2.2,14-2.2,21.1c0,2.4,0.1,4.9,0.2,7.3
			c0.2,6.2,0.6,12.4,1.1,18.6c0.1,0.8,0.2,1.6,0.7,2.1c0.4,0.4,1,0.6,1.6,0.7c2.8,0.7,5.7,1.2,8.5,1.7c0.6,0.1,1.2,0.2,1.7-0.1
			c0.5-0.2,0.8-0.7,1.1-1.1c1.3-2.2,2.1-4.5,2.5-6.9l0.8,3.7c1.1,2.8,2.2,5.7,2.6,8.8c0.2,1.8,0.1,3.6,0.1,5.4
			c0,2.4,0.3,4.8,0.8,7.2c0.5,2.3,1.3,4.8,3.1,6.3c1.9,1.5,5.1,1.5,6.3-0.5c0.8-1.2,0.6-2.8,0.3-4.2c-0.3-1.5-0.8-2.9-1.4-4.3
			c-0.6-1.3-1.3-2.6-1.9-4c-1-2.8-1.1-5.8-1.1-8.8c0.2,0,0.3-0.1,0.5-0.1c2.8-0.8,5.5-1.7,8.3-2.5c0.3-1.6,0.7-3.3,1-5l0.6,4.3
			c-1.5,6.3,0,13.2,4,18.3c1,1.2,2.3,2.5,3.9,2.4c2.3-0.1,3.4-3,2.9-5.2c-0.5-2.2-2.1-4-3.1-6.1c-2.3-4.8-1.5-10.4-0.6-15.7
			c0.6-3.6,1.2-7.2,1.9-10.7c1.3,5.9,2.5,11.7,3.9,17.5c0.2,0.6,0.4,1.4,0.9,1.7c0.7,0.5,1.7,0.2,2.3-0.4c0.6-0.6,0.9-1.5,1.1-2.3
			c2-7.4,2.9-15.2,2.9-22.9c0-2.6-0.1-5.2-0.2-7.8c-0.3-5.3-1-10.6-2.6-15.7c-2.8-8.9-8.4-16.7-12.9-24.8c-1.4-2.5-2.7-5.1-3.4-7.9
			c-0.6-2.3-0.7-4.7-0.7-7.1c0-1.5,0.1-3,0.2-4.5c0.2-3.8,0.5-7.6,0.7-11.3c0-0.1,0-0.1,0-0.2c3.7,1.8,8,4.8,10.9,5.5
			c1.7,0.5,3.6,0.3,5.4,0.2c0,0,11.1-2.4,18.1-6.4c0,0,6,3.6,9.1-0.5v-3.1C239.1,820.8,238.4,819.4,235.7,820.2z M166.4,813.8
			c0.2,0.3,0.4,0.5,0.5,0.8c0.9,1.4,1.6,3.1,2.1,4.8L166.4,813.8z"/>
	</g>
	<g>
		<g>
			<path d="M260.4,916.9c0,0-2.4-3.1-4.3-5.7c-1-1.3-1.5-2.8-1.5-4.4v-2.2c0.8,0,1.6,0,2.4,0c2.8-8.4,1.8-17.2,0.6-25.8
				c-1.7-12.1-4.1-24.1-8.1-35.9c-1.1-3.4-2.4-6.7-2.7-10.2c0-0.6-0.1-1.2-0.6-1.7c-0.5-0.5-1.2-0.6-2-0.6c0.5-0.2,1-0.4,1.5-0.7
				c0.6-0.3,1.2-0.6,1.4-1.1c0.3-0.5,0.2-1.1,0.1-1.7c-0.8-4.3-0.8-8.8,0-13.1c1.9,1.2,3.5,2.8,5.5,3.7c2.1,0.9,4.9,1.1,6.5-0.4
				c0.8-0.8,1.1-1.8,1-2.8c0-0.1,0.1-0.3,0.1-0.4c0.4-7.8-1.1-15.7-4.7-23.2c-0.6,0.2-1.3,0.3-2,0.5c1.3-0.7,2.3-1.6,3.1-2.7
				l-0.3,0.1c-0.3-2.3-1.5-4.5-3.3-6.2c0.3-0.9,0.8-1.8,0.7-2.8c-0.4-2.8-5.5-4.1-5.9-6.8l-0.6,0c0,0,0,0,0,0c0-0.7,0-1.3,0.1-1.8
				c0.2-0.5,0.4-1.1,0.3-1.6c-0.1-0.5-0.4-0.9-0.7-1.3c-1.6-2.3-1.3-2.7-3.6-3.7c-1.2-0.5-7.5-0.9-8.8-1c-0.4,0-0.7-0.1-1.1,0
				c-0.6,0.2-2.1,2-3.3,3.6c-1.3,0.1-2.5,0.2-3.5,0.2c-1.6,0-3.3,0-4.9,0.3c-2.5,0.6-2.9,1-4.2,2.6c-1.3,1.7-2,3.5-2.5,5.4
				c-0.5,1.8-0.8,3.6,0.1,5.3c0.8,1.5,2.5,2.6,4.4,3.4c1.9,0.7,4,1.1,6.1,1.5l0.7-0.4c0.1,0.1,0.2,0.1,0.2,0.2
				c0.1,0.7,0.1,1.3,0.2,2c0.1,0.8,0.4,1.7,0.9,2.4l-1.2,4.9c-0.6-0.1-1.2,0.9-1.2,1.5l-0.3,0.7c-1.6,0.1-2.4,1.2-4,2.3
				c-3.8,2.6-9.7,2.7-12.4,6.2c-1,1.3-1.4,2.8-1.7,4.3c-3.3,15.7,1.3,27.7,4.7,43.4c0.2,0,0.3-0.1,0.5-0.1c0,1.4-0.6,3,0.1,4.3
				c0.7,1.4,2.6,1.9,4.2,2.4c0.8,0.2,1.8,0.4,2.6,0.2c0.8-0.2,1.5-1.1,1-1.8c-0.2-0.4-0.7-0.5-1.1-0.8c-0.3-0.3-0.4-0.9,0.1-1
				c0.2-0.1,0.5,0,0.7-0.1c0.1-0.1,0.1-0.2,0.1-0.4c-0.2-1.3-0.5-2.6-1.1-3.9c0.4-0.1,0.8-0.1,1.2-0.2c-1.2-4.8-1.5-4.9-2.7-9.7
				c-1.4-5.6-2.8-11.4-1.7-17c3.3,2.8,5.3,6.7,5.7,10.7c0,0.3,0.1,0.7,0.5,0.9c0.2,0.1,0.4,0,0.6,0c0.2,0,0.5-0.1,0.7-0.1
				c-0.1,0.1-0.1,0.1-0.2,0.2c-0.5,0.6-0.4,1.5,0.3,1.9l-0.3-0.1c1.6,2.3-1.1,4.8-1.9,7.3c-0.7,2.1,0,4.3,0.3,6.4
				c0.5,3.4,0.1,6.9,0.5,10.3c0.3,2.4,1,4.8,1.3,7.2c0.4,2.6,0.3,5.3,0.3,8c-0.1,7.2-0.2,14.4-0.3,21.7c0,0.4,0,0.8,0.3,1.2
				c0.4,0.4,1.2,0.6,1.9,0.7c0,0,0.1,0,0.1,0c-0.3,1.7-0.6,3.3-0.6,5c0,2.3,0.6,4.8,2.2,6.6c1.6,1.9,4.4,3.1,7,2.7
				c0.2,0,0.5-0.1,0.7-0.2c0.6-0.4,0.4-1.3,0.2-1.9c-1-2.5-2.1-5-3.1-7.5c-0.6-1.4-1.1-2.8-1.3-4.2c0.8,0,1.5,0,2.3,0
				c0.6-2.6,0.5-5.3,0.5-8c-0.1-11.3,1.1-22.5,2.4-33.7c0.2-2.1,0.5-4.3,1.4-6.4c3.7,5.9,4.6,12.4,5.4,18.8
				c1.4,10.2,2.7,20.5,3.3,30.8c0,0.6,0.1,1.3,0.8,1.7c0.5,0.3,1.1,0.3,1.7,0.3l-0.2,1.9c-0.3,3,0.1,6,1.5,8.8
				c0.6,1.2,1.4,2.4,2.4,3.2c0,0,2.9,2.6,4.6,2.5C257,921,263,921.8,260.4,916.9z M240.1,792.7c1.1-0.9,1.6-2.2,1.6-3.4
				c0-1.1,0-2.2-0.3-3.2l3.7-0.8c2-0.2,4-0.4,6-0.8c0.3-0.1,0.7-0.1,1-0.3c0.1,0.2,0.1,0.3,0,0.5c-0.3,0.3-0.8,0.3-1.3,0.4
				c-0.6,0.1-1.1,0.6-1.3,1.2c-0.2,0.5-0.2,1.1-0.3,1.6c-0.2,1-0.7,2.1-0.1,3c0.3,0.4,0.7,0.6,1.2,0.8c-0.1,2.7,0.2,5.3,0.6,8
				c-1.1-0.8-2.3-1.4-3.8-1.7c-1.7-0.3-3.5,0-5.2-0.4l-4.4,0.4l-0.6-0.8c-0.1-1,0.1-2.2,0.8-3.4l0,0
				C238.6,793.6,239.4,793.3,240.1,792.7z"/>
		</g>
	</g>
	<g>
		<path d="M407.9,583.2c-1-1.9-0.5-4.7,1.5-5.4c-4.3-5.7-11.5-6.9-18.3-9.1c-6.8-2.2-16.4-2.6-22.9-0.6c-10,3-16.1,4.4-23.9,10.4
			c0.1,1.2,0,2.3-0.3,3.5c-0.3,0.7-0.6,1.5-1,2.2c-1.4,2.4-3.8,4.2-6.5,4.7c2.4-0.3,4.8,0.6,6.5,2.2c-0.3,0.7-0.6,1.5-0.8,2.3
			c-0.4,1.2-0.7,2.4-1.1,3.6c-0.4,1.3-0.8,2.6-0.7,4c0.2,2.2,1.7,4.1,3.7,5s4.3,0.8,6.3,0.1l0,0c0.3,0.3,0.7,0.5,1.1,0.7
			c0,0,0,0,0,0c-0.4,1.1-0.8,2.3-1,3.4c-0.3-0.2-0.6-0.3-0.9-0.5c0.2-0.8-0.6-1.6-1.4-1.8c-0.8-0.2-1.7,0-2.5,0.1
			c-5.9,0.9-11.9-1.9-16.5-5.8c-4.4-3.7-7.8-8.4-11.6-12.8l0,0c0,0,0,0-0.1,0c-0.1-0.2-0.3-0.3-0.4-0.5c-0.3-0.3-0.6-0.7-1.1-0.8
			c-0.1,0-0.2,0-0.2,0c-2.2-1.8-3.9-4.2-4.8-6.9c-0.3-0.8-0.5-1.5-0.9-2.2c-0.4-0.7-1.1-1.3-1.9-1.4c-0.4-0.1-0.9,0.1-1.3,0
			c-0.6-0.1-1.1-0.4-1.7-0.3c-0.9,0.2-1.3,1.3-1.4,2.2c-0.1,0.5-0.1,1.1,0.2,1.5c0.3,0.4,1.1,0.5,1.3,0.1c0.1-0.2,0.1-0.4,0.2-0.5
			c0.2-0.5,1.1-0.6,1.3-0.1c-0.2,0.6-0.9,0.8-1.6,0.9c-0.2,0-0.4,0.1-0.6,0.2c-0.4,0.4-0.2,1.2,0.4,1.4c0.5,0.3,1.1,0.3,1.7,0.5
			c1.3,0.4,2.1,1.6,2.8,2.7c0.7,1.1,1.3,2.2,2,3.2l-0.1,0.2c4.6,10,12.5,18.4,22.1,23.6c0.7,0.4,1.5,0.8,1.9,1.5
			c0.4,0.6,0.6,1.4,0.7,2.1c1,6.7-0.6,13.4-0.1,20.2c0.3,4.1,1.3,8.2,1.5,12.3c0.5,10.1-3.6,19.9-3.3,30c3.8,0.7,7.7,1.2,11.6,1.4
			c0.7,1.7,1.5,3.4,2.4,5c0.6,1,1.3,2.1,1.6,3.2c0.5,2-0.3,4-0.9,5.9c-1,3.3-1.7,6.6-1.6,10c0.2,5.3,2.4,10.7,1.8,16
			c0.9,0.1,1.9,0.2,2.8,0.3c1.2,0.2,2.4,0.3,3.6,0.5c0.5,0.1,1,0.1,1.4,0.2c1.3,0.2,2.5,0.3,3.8,0.5c0-1.9,0.3-4.8,0.3-5.3
			c0.1-8.1-0.6-16.2-2.3-24.2c1.2-2.7,2.2-5.4,1.8-8.2c-0.1-0.8-0.3-1.6-0.6-2.4l0.3-1c2-3.3,4-6.8,4.2-10.4
			c0.5-0.2,1.1-0.5,1.6-0.7c-0.1-3.6-0.1-7.3-0.2-10.9c0-2.2-0.1-4.5-0.4-6.7c1.7-2.3,1.8-4.7,1.8-7.6c0-0.7,0-1.5,0-2.2
			c0.1,0,0.2-0.1,0.3-0.1c0.3,1.6,0.5,3.2,0.8,4.8c0.1,0.3,0.1,0.5,0.1,0.8c0.1,0.8,0.3,1.6,0.4,2.4l-0.4-1.9c0,1.9-0.8,3.8-1.5,5.7
			c-0.9,2.5-1.2,5.9,1.1,7.3c0.5,0.3,1,0.5,1.5,0.6c0.6,2.5,1.3,4.9,1.9,7.4c0,0.2,0.1,0.3,0.1,0.5c0.4,2.5,0.9,5.1,2.7,6.8
			c0.8,0.8,1.7,1.3,2.8,1.7c0.1,0.7,0.1,1.1,0.1,1.1s-0.7,5.4,0,7.6c0.4,1.5,2.9,18.3,5.6,25.3c1.4,3.6,1.5,6.9,1.2,9.2
			c0,0-0.1,0-0.1-0.1c0.1,0.9-0.8,2.7-0.7,3.6c-0.1,0.1-0.2,0.2-0.3,0.3c1.3,0.2,2.6,0.5,3.9,0.8c0.5,0.1,1,0.2,1.5,0.3
			c2.9,0.6,5.8,1.2,8.7,1.9c0.2-0.2,0.3-0.4,0.4-0.7c1.2-2.2,0.6-4.9,0-7.4c0.1,0.3-0.2,0.5-0.7,0.6c-0.4-1.5-1.1-4.3-1-6.3
			c0.2-2.9,1.5-17.1,1.3-17c-0.2,0.2-0.2-5.2-2-7.6c-1.6-2-0.5-6.7-0.3-9c0.2-1.3,0.1-3.8,0.7-4.9c0.6-1,2.2-1.6,3.7-2.1
			c1,0,2,0,3,0c-0.6-2.1-1.3-4.6-2.2-7.3c-0.4-1.5-0.7-3-1.1-4.5c0.4-0.1,0.7-0.2,1.1-0.3c2.2-0.7,4.3-2.2,5.2-4.3
			c0.7-1.7,0.7-3.6,0.6-5.4c-0.2-6.6-0.4-13.2-0.7-19.8c0-0.5,0-0.9,0-1.4c0.7-4.7,0.7-9.4,0-14.1c-0.3-1.9-0.7-3.8-1.7-5.4
			c-0.9-1.5-2.5-2.7-4.2-2.9c-0.2-0.2-0.4-0.4-0.5-0.7c-0.1-1.2-0.9-2.4-2-3c-1-0.5-2.1-0.7-3.2-0.5c-1.4-0.3-3,0-4,1.1
			c-0.1,0.1-0.2,0.3-0.3,0.4c0.4-1.3,1-2.2,1.2-3.7c0.1,0.2,0.1,0.1,0.2-0.1c0.3,0.1,0.6,0.2,0.9,0.3c1.6,0.5,3.6,0.3,4.5-1.2
			c0.8-1.4,0.1-3.2-0.6-4.6c-0.5-1-1-2-1.5-3c1.1-0.8,2.4-1.3,3.7-1.4c2.4-0.2,4.8,0.9,6.3,2.7c-0.1-2.2,0.8-4.5,2.5-6
			c1.6-1.5,3.9-2.3,6.2-2C410.9,586.2,408.9,585.1,407.9,583.2z M364.5,622.9c0.1,1,0,2-0.3,3c-0.1,0.2-0.2,0.4-0.3,0.6
			c-0.2,0.6-0.4,1.2-0.6,1.8c0,0.1-0.1,0.1-0.1,0.2C363.7,626.6,364.1,624.8,364.5,622.9z M379.6,598.5
			C379.5,598.5,379.5,598.5,379.6,598.5C379.5,598.5,379.5,598.4,379.6,598.5C379.6,598.5,379.6,598.5,379.6,598.5z M380.1,607.9
			L380.1,607.9C380.2,607.9,380.2,608,380.1,607.9L380.1,607.9z M377.9,603.7c0.4,0.1,0.8,0.1,1.1,0c0.1,0.6,0.2,1.1,0.3,1.7
			l-0.1-0.2c-0.2,1.1-0.2,2.3,0,3.6c-0.6-0.7-1.4-1.3-2.3-1.5l0-4.1C377.3,603.4,377.6,603.6,377.9,603.7z M373.1,594.4
			c0.1,0.2,0.3,0.3,0.5,0.4c0,0.1,0,0.3,0,0.4c-0.1,0.2-0.2,0.5-0.1,0.7c0,1,0.1,2,0.3,3c-0.1,0.8,0.4,1.6,1.2,1.9
			c-0.4,0.4-0.5,1.1-0.1,1.6c0.2,0.2,0.4,0.4,0.7,0.4l0,4.3c-1.6,0.4-2.8,2.3-1.9,3.7c0,0-0.1,0-0.1,0.1l-0.1-0.1c0,0,0,0.1,0.1,0.1
			c-2.4,1.9-4.3,4.4-5.8,7.1c-0.1-0.4-0.1-0.7-0.2-1.1c0,0-4.3-8.2-9.7-8.2c-0.9,0-1.2,0.6-1,1.5c-0.1-0.1-0.3-0.1-0.5-0.2
			c0,0-0.1,0-0.1,0c0-1.3-0.1-2.5-0.1-3.8c0.9-0.3,1.7-0.7,2.5-1.3c0.4,1.5,2.2,2.4,3.8,2.6c3.3,0.3,6.9-1.8,7.8-5
			c0.3-1.2,0.2-2.6-0.7-3.4c-0.5-0.4-1.1-0.6-1.7-0.7c-0.2-0.1-0.4-0.1-0.6-0.2C369,596.7,370.9,595.4,373.1,594.4z M364.9,596.8
			c-0.3-0.4-0.5-0.8-0.6-1.2c0.6,0.7,1.2,1.4,1.7,2.2C365.6,597.5,365.2,597.2,364.9,596.8z M362.2,642.9l0.1,0
			c0.1,0.4,0.2,0.8,0.4,1.2C362.5,643.7,362.4,643.3,362.2,642.9z M386.2,681.8c0,0,1.7,12.4,3.1,13.8s1.5,16.2,1.5,16.2l-0.4,5.9
			c-1.1-1.5-2.7-5.1-3.2-13.9c0,0,1.1-5.9-0.4-10.9S386.2,681.8,386.2,681.8z"/>
		<path d="M383.1,721.3c0.4,0.2,0.8,0.3,1.1,0.5C384.2,721.3,383.9,721,383.1,721.3z"/>
		<path d="M368.7,647.9c0-0.3-0.1-0.5-0.1-0.8c-0.1-0.3-0.1-0.5-0.2-0.7l0.4,2.1C368.7,648.3,368.7,648.1,368.7,647.9z"/>
	</g>
	<g>
		<g>
			<path d="M120.2,918.5c-0.2-1.7-0.9-3.2-1.6-4.7c-1.2-2.5-2.3-5-4.1-7.1c-0.7-0.8-1.5-1.6-2.3-2.3c-1-1.1-1.9-2.2-2.8-3.4
				c-2.3-2.8-4.7-5.5-7.3-8l0.5-0.2c5.8-2.7,11.7-5,17.7-7c1.9,7.8-0.9,15.9-1,23.9c0,0.3,0,0.5,0.2,0.7c0.2,0.2,0.4,0.2,0.7,0.3
				c2.8,0.4,5.7,0.5,8.6,0.3c0.3,0,0.6-0.1,0.8-0.3c0.2-0.2,0.2-0.5,0.2-0.8c0.6-8.1,1.5-16.1,2.7-24.2c0.4-2.5,0.8-5.1,0.4-7.6
				s-1.6-5-3.8-6.3c-2.1-1.2-4.6-1-7-0.9c-2,0.1-4,0.3-6.1,0.4c11.3-7.1,24.6-15.7,24.6-15.7l-15.4-23.2c-2.9,0.5-9.9,5-16.8,9.7
				l-0.1-0.3c-2.3-8.5-5.9-8.5-5.9-8.5c-0.9-1.5-3.8-3.5-4.2-3.7l0.5-0.6c0.2,0,0.3,0.1,0.5,0.1c1.9,0.2,3.9-0.1,5.5-1.1
				c1.6-1,2.9-2.6,3.3-4.5c0.1-0.4,0.1-0.8,0.2-1.1c0.3,0.4,0.7,0.7,1.1,0.8c0.3,0.1,0.7,0.1,1.1,0.1c0.7,0,1.6-0.2,2-0.8
				c0.2-0.2,0.2-0.5,0.3-0.7c0.2-0.6,0.2-1.2,0-1.7c-0.2-0.6-0.6-1.1-1.1-1.3c-0.1-0.1-0.2-0.1-0.4-0.1c0.7-0.9,1.4-1.8,1.9-2.8
				c1-1.9,1.6-4.1,1.3-6.3c-0.1-0.4-0.1-0.7-0.2-1.1c0.2-0.1,0.3-0.2,0.4-0.3c0.2-0.2,0.2-0.5,0.1-0.7c0.1,0.2-0.1,0.4-0.2,0.6
				c-0.1,0.1-0.2,0.2-0.3,0.3c-0.2-0.6-0.5-1.2-0.8-1.8l0.7,0c-0.2-0.2-0.5-0.2-0.8-0.2c0,0,0,0,0,0c0-0.2,0-0.4,0-0.6
				c0,0,0-0.1-0.1-0.1c0.1-0.1,0.2-0.1,0.2-0.2c0.1-0.1,0.1-0.2,0.1-0.3c0-0.2-0.2-0.3-0.4-0.4c0,0,0,0,0,0c0,0.2,0.1,0.4,0.1,0.6
				c0,0.1,0,0.2,0,0.3c0,0,0,0,0,0c-0.1-0.2-0.3-0.4-0.6-0.5c0,0-0.1,0-0.1,0c-0.1-0.2-0.3-0.3-0.4-0.5c0.1,0,0.1,0,0.2,0
				c0.1,0,0.2-0.1,0.3-0.2l0,0c0.2,0.1,0.4,0.1,0.6,0.2c0-0.2-0.1-0.3-0.1-0.5c0-0.1-0.1-0.2-0.1-0.2c0,0,0,0,0-0.1
				c0.2-0.5,0.3-1.1,0-1.5c-0.3-0.4-0.8-0.5-1.3-0.4c-0.5,0.1-0.9,0.3-1.3,0.5c-0.1,0.1-0.2,0.1-0.3,0.2c-0.6-0.7-1.3-1.3-2.2-1.4
				c0,0,0,0,0,0c0,0,0-0.1,0-0.1c0-0.1,0-0.1-0.1-0.2c-0.3-0.3-0.7-0.4-1.1-0.4c-0.1,0-0.1,0-0.2,0l0.7,0.7c-0.2-0.1-0.5-0.1-0.7,0
				c-0.4-0.1-0.8-0.2-1.3-0.2c0,0,0-0.1,0-0.1c0-0.1,0-0.1,0-0.1c0-0.1,0.1-0.1,0.2-0.1c0.3-0.1,0.7-0.2,1-0.2l-2-2
				c-0.5-0.7-1.6-0.8-2.3-0.3c-0.6,0.4-1,1.2-1.1,1.9c-0.5-0.1-0.9-0.1-1.4,0.1c0,0-0.1,0-0.1-0.1c-0.3,0-0.5,0.1-0.7,0.3
				c-0.3,0.3-0.4,0.7-0.3,1l0,0c-0.5-0.4-1.2-0.6-1.8-0.5c-0.2,0.2-0.1,0.6,0.1,0.8c0.2,0.2,0.5,0.4,0.8,0.4c0.2,0,0.4,0,0.6,0
				l0,0.1c-0.3-0.1-0.6-0.1-1-0.1c0,0.4,0.2,0.9,0.5,1.1l-0.1,0.2c-0.3-0.3-0.9-0.4-1.2-0.1c-0.3,0.3-0.3,0.7-0.2,1
				c0.1,0.3,0.4,0.6,0.7,0.8l-0.1,0.3c0,0,0,0,0,0.1c0,0-0.1,0-0.1,0c-0.1,0-0.1,0-0.2,0c0,0.2,0,0.4-0.1,0.5
				c-0.1,0.1-0.1,0.2-0.2,0.2c-0.5-0.1-1.1,0-1.5,0.3c-0.1,0.3,0.2,0.6,0.5,0.6c0.2,0,0.4-0.1,0.5-0.2c0,0-0.1,0.1-0.1,0.1
				c0,0,0,0.1-0.1,0.1c-0.1,0-0.1,0.1-0.2,0.2c-0.1,0.2-0.2,0.4-0.2,0.6c-2.1,3.6-3.6,7.6-3.4,11.7l-0.1-0.2
				c-0.9,0.9-1.5,2.2-2.1,3.3c-0.1,0.3-0.3,0.6-0.4,0.9c-26.8,8.3-20.8,32.9-20.8,32.9s1.4,10.9,4,15.8c0,0,5.3,2.9,2.7,7.6
				c0,0,0,0.1,0.1,0.2l-0.5,0.4c-1,3.9-1.9,8.2-0.2,11.8c0.9,1.8,2.3,3.3,3.7,4.7c1.8,1.7,3.6,3.4,5.4,5c5,4.2,10.8,7.8,14.3,13.2
				c0.9,1.4,1.7,3.1,1.5,4.9c-3.5,0.9-6.9,1.8-10.4,2.7c-0.9,0.2-1.9,0.5-2.8,0.9c-0.8,0.4-1.4,0.9-2.1,1.3
				c-3.5,2.1-7.7,2.7-11.8,3.3c-0.4,0.1-0.7,0.1-1,0.4c-0.3,0.3-0.4,0.7-0.4,1.1c0,0.2,0,0.5,0,0.7l-0.1-0.3c-1-0.8-2.1-1.6-3.3-2
				c-1.2-0.4-2.7-0.3-3.7,0.6c-0.6,0.5-0.9,1.2-1.2,1.9c-1.7,3.8-3.4,7.5-5.1,11.3c-1.2,2.7-2.4,5.9-0.9,8.5
				c0.3,0.6,0.8,1.1,1.5,1.3c1.5,0.5,3-0.7,4-2c1.3-1.7,2.5-3.5,3.5-5.4c0.8-1.5,1.4-3.1,2.4-4.5c1-1.4,2.6-2.5,4.3-2.5l-0.1-0.4
				c0.1,0.2,0.3,0.5,0.5,0.6c0.5,0.4,1.1,0.4,1.7,0.4c7.7,0.3,15.6,0.5,22.8-2.1c2.7-1,5.3-2.3,7.9-3.4c3.5-1.5,7.1-2.7,10.2-4.9
				C118.2,925.8,120.6,922.2,120.2,918.5z M91.1,831.9C91.1,832,91.1,832,91.1,831.9L91.1,831.9L91.1,831.9z M100.2,871.6l1.3,2.4
				l-1.7,0.3L100.2,871.6z M99.1,802.9C99.1,802.9,99.1,802.9,99.1,802.9C99.1,802.9,99.1,802.9,99.1,802.9
				C99.1,802.9,99.1,802.9,99.1,802.9C99.1,802.9,99.1,802.9,99.1,802.9z M103.9,801c-0.4,0-0.9,0.1-1.3,0.1c0,0-0.1-0.1-0.2-0.1
				c0,0,0.1,0,0.1,0c0.1-0.1,0.2-0.3,0.2-0.4c0.2,0,0.5,0,0.7,0.1C103.7,800.8,103.8,800.9,103.9,801z"/>
		</g>
		<g>
			<path d="M139.7,920.7c-1.1-0.9-2.6-1.1-4-1.5c-4-1.1-7.9-4-8.7-8.1l-5.4,0.3c0.4,1.1-0.1,2.5-1,3.1c-0.2,0.1-0.4,0.3-0.5,0.5
				c-0.1,0.2,0,0.4,0.1,0.6c0.8,2.1,0.8,4.5,0.1,6.7c-0.1,0.2-0.1,0.5,0.1,0.7c0.1,0.1,0.2,0.1,0.2,0.1c5.6,1.2,11.3,1.9,17,2.1
				c1,0,2.1,0,2.8-0.7C141.4,923.4,140.8,921.6,139.7,920.7z"/>
		</g>
		<g>
			<path d="M96.1,805.3c-0.2-0.5-0.9-0.9-1.4-0.6c-0.1,0.1-0.3,0.2-0.2,0.4c0,0.1,0.1,0.2,0.2,0.3c0.5,0.3,1,0.4,1.5,0.4
				C96.2,805.6,96.1,805.5,96.1,805.3z"/>
		</g>
	</g>
	<path d="M713.4,851.6c0.2-0.9,0.3-1.7,0.5-2.6c0.9-6.1,1-12.3,0.4-18.4c-0.1-1.3-0.3-2.6-0.6-3.9c-0.2-2-0.8-3.6-2.2-4.6
		c-1.3-1.4-3-2.3-4.8-2c-4.8-2.3-11.3-6.1-14.7-4.4c0-0.2-0.1-0.5-0.1-0.7c0.1-1.3,0-2.6-0.3-4c0-0.6-0.1-1.1-0.3-1.6
		c0.7-2,1.3-4.1,1.3-5.4c0.2-0.2,0.4-0.4,0.6-0.6c-0.7-1.9,0.2-3.7-0.5-5.6c-0.7-1.9-1.5-5.3-3-6.7c-1.7-1.6-5.8-0.8-8.2-0.8
		c-2.5,0-4.9,0.5-7.3,1.1c-1.3,0.3-2.7,0.7-3.3,1.8c-0.4,0.8-0.3,1.7-0.2,2.6c0.3,1.7,0.5,3.4,0.8,5.2c0.6-0.6,1.2-1.1,1.8-1.6
		c-0.5,1.5-0.6,3.3-0.5,5c-0.1,0.1-0.3,0.1-0.4,0.2c0.1-0.1,0.3-0.1,0.4-0.2c0,0,0,0.1,0,0.1c0.2,3.1,0.5,6.4,1.9,9.2
		c1,2.1,2.8,3.8,4.9,4.7c-0.1,0.5-0.1,1.1-0.2,1.6c-0.6,0-1.2-0.1-1.8-0.1c-1.4,1.3-2.6,2.7-3.6,4.3c-0.7,1-1.2,2.3-1.2,3.5
		c-0.3-0.5-0.7-1-1.2-1.3c-3.1-2.4-7.2,3.7-9.2,5.7c-1.3,1.3-2.7,2.7-3.5,4.4c-0.8,1.7-1.1,3.7-0.2,5.4c1.1,2.1,3.7,3,6,2.6
		c1-0.2,2-0.5,2.9-1c-0.1,1.1-0.1,2.3,0,3.5c-0.1,0-0.1-0.1-0.2-0.1c-0.3,0.9-2,9.6-1.6,9.8c4.4,2.4,9,4.3,13.8,5.8
		c1.1,0.3,2.3,0.6,3.3,0.1c0.2,0.1,0.3,0.2,0.5,0.4c-2.9-0.3-6,0.6-9,2.3c-8.1,4.6-18,6.6-26.4,10.7c-3.2,1.5-6.5,3.3-8.3,6.4
		c-1.9,3.3-1.7,7.5-0.9,11.2c1.3,6.3,3.7,12.4,7.1,17.9c1.6,2.5,3.4,5.1,3.5,8.1c0,2.8-1.6,5.3-3.7,7.1c-1.1,0.9-2.2,1.6-3.5,2.3
		c-1,0.5-0.7,2.1,0.5,2.2c5.6,0.3,11.3-0.7,16.5-2.9c2.1-0.9,4.3-2.1,5.2-4.2c0.8-1.8,0-4.3-1.6-5c-0.5-0.2-0.8-0.7-0.7-1.2l0.1-0.7
		c0.1-0.4,0.3-0.7,0.6-0.9c0.5-0.3,0.8-0.8,0.6-1.4l-4.8-14.7c-0.2-0.6,0.1-1.2,0.6-1.4l22.4-10c1.8-0.8,3.5-1.6,5.2-2.6
		c1.5,13.7,3.3,27.4,5.4,41c-0.6,0-1.1,0.2-1.4,0.4c-1.8,1.2-0.8,3.1-0.8,5.2c0.1,4.3-1.2,8.5-3.6,11.9c-0.5,0.7-1.1,1.6-0.7,2.4
		c0.3,0.6,1.2,0.9,1.8,0.7c0.7-0.2,1.2-0.6,1.7-1c2.9-2.5,5.7-5,8.6-7.5c1.9-1.7,4-3.7,3.7-6.4c0-0.4-0.2-0.8-0.3-1.1
		c1.3-2.5,1.6-5.4,1.8-8.3c0.5-8.3-0.3-17,2.6-24.8c1.5-4,3.9-7.6,5.5-11.6c1.9-4.7,2.6-10,2.1-15.2c-0.2-0.1-0.4-0.1-0.6-0.2
		l0.1-3.2c0.2,1.1,0.4,2.2,0.5,3.3c0.2,0,0.4,0.1,0.6,0.1l-1.1-3.8l0.2-6.3C713,858.2,713.3,854.9,713.4,851.6z M675,830.4
		c0.1,0,0.2,0,0.3,0.1c0,0,0,0-0.1,0.1C675.2,830.5,675.1,830.5,675,830.4z M691.5,811.9c0-0.1,0-0.2,0-0.3L691.5,811.9
		C691.5,811.8,691.5,811.9,691.5,811.9z M679.7,818.9c-0.1,0.3-0.2,0.7-0.3,1.1c0,0,0,0,0,0C679.4,819.6,679.5,819.2,679.7,818.9z"
		/>
</g>
</svg>
